<svg width="710" height="296" viewBox="0 0 710 296" fill="none" xmlns="http://www.w3.org/2000/svg">
    <path d="M76.0769 161.288C76.0749 165.744 81.4632 167.977 84.6134 164.825L240.816 8.53454C243.964 5.38431 241.733 0 237.279 0H81.1472C78.3867 0 76.1485 2.23721 76.1472 4.99775L76.0769 161.288Z" fill="#F37021"/>
    <path d="M266.25 28.9902C266.25 24.5349 260.863 22.3044 257.713 25.4556L169.125 114.094C165.977 117.244 168.208 122.629 172.661 122.629H261.25C264.011 122.629 266.25 120.39 266.25 117.629V28.9902Z" fill="#F37021"/>
    <path d="M138.958 143.771C137.626 143.771 136.349 144.303 135.41 145.248L77.5491 203.511C76.6193 204.447 76.0973 205.713 76.0969 207.033L76.0729 290.997C76.0721 293.76 78.3117 295.999 81.0742 295.999L261.251 295.949C264.012 295.948 266.25 293.71 266.25 290.949V148.771C266.25 146.01 264.011 143.771 261.25 143.771H138.958Z" fill="#F37021"/>
    <path d="M54.9396 141.522C54.9402 140.194 54.4125 138.921 53.4731 137.982L8.53349 93.095C5.38283 89.948 0 92.1795 0 96.6326V291C0 293.761 2.23858 296 5 296H49.8774C52.638 296 54.8762 293.763 54.8774 291.002L54.9396 141.522Z" fill="#F37021"/>
    <path d="M46.3508 97.1376C49.4965 100.298 54.8922 98.0714 54.8944 93.6126L54.938 5.00246C54.9394 2.24008 52.7004 0 49.938 0H5C2.23858 0 0 2.23858 0 5V48.5104C0 49.8326 0.523657 51.1009 1.45641 52.0379L46.3508 97.1376Z" fill="#F37021"/>
    <path d="M553.625 118.716C553.627 123.212 548.157 125.426 545.031 122.194L435.043 8.47608C431.974 5.30299 434.223 0 438.637 0H548.57C551.331 0 553.569 2.23711 553.57 4.9976L553.625 118.716Z" fill="#F37021"/>
    <path d="M464.871 71.82C468.004 74.9749 465.769 80.3429 461.323 80.3429H372.679C369.917 80.3429 367.679 78.1043 367.679 75.3429V5C367.679 2.23858 369.917 0 372.679 0H391.481C392.814 0 394.091 0.531705 395.03 1.47713L464.871 71.82Z" fill="#F37021"/>
    <path d="M492.067 101.486C493.416 101.486 494.708 102.031 495.649 102.998L552.189 161.081C553.097 162.014 553.606 163.265 553.606 164.567L553.63 290.998C553.631 293.76 551.391 295.999 548.629 295.999L372.677 295.949C369.916 295.948 367.679 293.71 367.679 290.949V106.486C367.679 103.724 369.917 101.486 372.679 101.486H492.067Z" fill="#F37021"/>
    <path d="M578.989 104.002C578.988 102.683 579.509 101.417 580.438 100.48L625.377 55.1413C628.521 51.97 633.929 54.196 633.929 58.6612V291C633.929 293.761 631.69 296 628.929 296H584.052C581.291 296 579.052 293.762 579.052 291.002L578.989 104.002Z" fill="#F37021"/>
    <path d="M628.929 0C631.69 0 633.929 2.23858 633.929 5V13.2481C633.929 14.5476 633.423 15.7961 632.518 16.729L587.61 63.0358C584.484 66.2592 579.023 64.0479 579.021 59.5576L578.991 5.00271C578.989 2.24023 581.228 0 583.991 0H628.929Z" fill="#F37021"/>
    <path d="M342.321 5C342.321 2.23858 340.083 0 337.321 0H292.381C289.62 0 287.381 2.23858 287.381 5V291C287.381 293.761 289.62 296 292.381 296H337.321C340.083 296 342.321 293.761 342.321 291V5Z" fill="#F37021"/>
    <path d="M710 5C710 2.23858 707.761 0 705 0H660.06C657.298 0 655.06 2.23858 655.06 5V291C655.06 293.761 657.298 296 660.06 296H705C707.761 296 710 293.761 710 291V5Z" fill="#F37021"/>
</svg>
