<svg width="181" height="45" viewBox="0 0 181 45" fill="none" xmlns="http://www.w3.org/2000/svg">
    <path d="M61.0441 9.39858H56.4901V6.58862H68.9895V9.39858H64.4354V21.8012H61.0441V9.39858Z" fill="#004A3D"/>
    <path d="M75.4814 22.092C74.6094 22.092 73.8342 21.9951 73.1559 21.7044C72.4777 21.4137 71.8963 21.0262 71.4118 20.5417C70.9274 20.0572 70.5398 19.3789 70.2491 18.7007C69.9584 18.0224 69.8615 17.2473 69.8615 16.3752C69.8615 15.5031 69.9584 14.8249 70.2491 14.0497C70.5398 13.3715 70.9274 12.6932 71.4118 12.2087C71.8963 11.7242 72.4777 11.2398 73.1559 10.9491C73.8342 10.6584 74.6094 10.4646 75.4814 10.4646C76.3535 10.4646 77.1286 10.6584 77.8069 10.9491C78.4852 11.2398 79.0665 11.7242 79.4541 12.3056C79.9386 12.887 80.2293 13.4683 80.4231 14.2435C80.6169 14.9218 80.8107 15.6969 80.8107 16.4721V16.7628C80.8107 16.8597 80.8107 16.9566 80.8107 17.0535H72.8653C72.8653 18.0224 73.1559 18.7007 73.6404 19.1852C74.1249 19.6696 74.7063 19.8634 75.5783 19.8634C76.1597 19.8634 76.7411 19.6696 77.1286 19.3789C77.6131 19.0883 77.8069 18.7976 77.9038 18.41H80.52C80.1324 19.7665 79.4541 20.6386 78.5821 21.22C77.8069 21.8013 76.7411 22.092 75.4814 22.092ZM77.8069 15.1156C77.71 14.3404 77.4193 13.759 77.0317 13.3715C76.6442 12.9839 76.1597 12.7901 75.3845 12.7901C74.9001 12.7901 74.5125 12.887 74.1249 13.0808C73.8342 13.2746 73.5435 13.4683 73.3497 13.6621C73.1559 13.8559 73.0591 14.1466 72.9622 14.4373C72.8653 14.728 72.8653 14.9218 72.8653 15.1156H77.8069Z" fill="#004A3D"/>
    <path d="M82.6512 10.7553H85.5581V12.2087C85.9457 11.6274 86.4302 11.1429 87.0115 10.9491C87.5929 10.6584 88.1743 10.5615 88.8525 10.5615C89.7246 10.5615 90.4997 10.7553 91.0811 11.046C91.6625 11.3367 92.2439 11.8212 92.6314 12.3056C93.019 12.887 93.3097 13.4684 93.5035 14.1466C93.6973 14.8249 93.7942 15.6001 93.7942 16.3752C93.7942 17.1504 93.6973 17.8287 93.5035 18.5069C93.3097 19.1852 93.019 19.7666 92.6314 20.3479C92.2439 20.8324 91.7594 21.3169 91.0811 21.6076C90.4028 21.8982 89.7246 22.092 88.9494 22.092C88.2712 22.092 87.5929 21.9951 87.1084 21.7045C86.527 21.4138 86.0426 21.0262 85.655 20.4448V25.6772H82.6512V10.7553ZM88.1743 19.8635C88.6587 19.8635 89.0463 19.7666 89.4339 19.5728C89.7246 19.379 90.0153 19.0883 90.2091 18.7976C90.4028 18.5069 90.5966 18.1193 90.6935 17.7318C90.7904 17.3442 90.7904 16.8597 90.7904 16.3752C90.7904 15.8908 90.7904 15.5032 90.6935 15.1156C90.5966 14.728 90.4028 14.3404 90.2091 13.9529C90.0153 13.6622 89.7246 13.3715 89.4339 13.1777C89.1432 12.9839 88.6587 12.887 88.1743 12.887C87.6898 12.887 87.3022 12.9839 86.9146 13.1777C86.6239 13.3715 86.3333 13.6622 86.1395 13.9529C85.9457 14.2435 85.7519 14.6311 85.655 15.1156C85.5581 15.5032 85.5581 15.9876 85.5581 16.4721C85.5581 16.9566 85.5581 17.3442 85.655 17.8287C85.7519 18.2162 85.8488 18.6038 86.1395 18.8945C86.3333 19.1852 86.6239 19.4759 86.9146 19.6697C87.3022 19.7666 87.6898 19.8635 88.1743 19.8635Z" fill="#004A3D"/>
    <path d="M95.6353 10.7553H98.5421V12.2087C98.9297 11.6274 99.4142 11.1429 99.9955 10.9491C100.577 10.6584 101.158 10.5615 101.837 10.5615C102.709 10.5615 103.484 10.7553 104.065 11.046C104.647 11.3367 105.228 11.8212 105.615 12.3056C106.003 12.887 106.294 13.4684 106.488 14.1466C106.681 14.8249 106.778 15.6001 106.778 16.3752C106.778 17.1504 106.681 17.8287 106.488 18.5069C106.294 19.1852 106.003 19.7666 105.615 20.3479C105.228 20.8324 104.743 21.3169 104.065 21.6076C103.484 21.8982 102.709 22.092 101.933 22.092C101.255 22.092 100.577 21.9951 100.092 21.7045C99.608 21.4138 99.0266 21.0262 98.639 20.4448V25.6772H95.6353V10.7553ZM101.158 19.8635C101.643 19.8635 102.03 19.7666 102.418 19.5728C102.709 19.379 102.999 19.0883 103.193 18.7976C103.387 18.5069 103.581 18.1193 103.678 17.7318C103.774 17.3442 103.774 16.8597 103.774 16.3752C103.774 15.8908 103.774 15.5032 103.678 15.1156C103.581 14.728 103.387 14.3404 103.193 13.9529C102.999 13.6622 102.709 13.3715 102.418 13.1777C102.127 12.9839 101.643 12.887 101.158 12.887C100.674 12.887 100.286 12.9839 99.8986 13.1777C99.608 13.3715 99.3173 13.6622 99.1235 13.9529C98.9297 14.2435 98.7359 14.6311 98.639 15.1156C98.5421 15.5032 98.5421 15.9876 98.5421 16.4721C98.5421 16.9566 98.5421 17.3442 98.639 17.8287C98.7359 18.2162 98.8328 18.6038 99.1235 18.8945C99.3173 19.1852 99.608 19.4759 99.8986 19.6697C100.286 19.7666 100.674 19.8635 101.158 19.8635Z" fill="#004A3D"/>
    <path d="M108.619 10.7551H111.526V18.216L115.693 10.7551H119.181V21.8012H116.274V14.3402L112.107 21.8012H108.619V10.7551Z" fill="#004A3D"/>
    <path d="M124.123 13.0806H120.538V10.7551H130.808V13.0806H127.126V21.8012H124.123V13.0806Z" fill="#004A3D"/>
    <path d="M137.494 22.092C136.622 22.092 135.847 21.9951 135.169 21.7044C134.49 21.4137 133.909 21.0262 133.424 20.5417C132.94 20.0572 132.552 19.4758 132.262 18.7007C131.971 18.0224 131.874 17.1504 131.874 16.2783C131.874 15.4062 131.971 14.6311 132.262 13.8559C132.552 13.1777 132.94 12.4994 133.424 12.0149C133.909 11.5304 134.49 11.1429 135.169 10.8522C135.847 10.5615 136.622 10.4646 137.494 10.4646C138.366 10.4646 139.141 10.5615 139.82 10.8522C140.498 11.1429 141.079 11.5304 141.661 12.0149C142.145 12.4994 142.533 13.1777 142.823 13.8559C143.114 14.5342 143.211 15.4062 143.211 16.2783C143.211 17.1504 143.114 17.9255 142.823 18.7007C142.533 19.3789 142.145 20.0572 141.661 20.5417C141.176 21.0262 140.595 21.4137 139.82 21.7044C139.141 21.9951 138.366 22.092 137.494 22.092ZM137.494 19.8634C137.979 19.8634 138.463 19.7665 138.754 19.5727C139.141 19.3789 139.335 19.0883 139.626 18.7976C139.82 18.5069 140.013 18.1193 140.11 17.6348C140.207 17.2473 140.207 16.7628 140.207 16.3752C140.207 15.8907 140.207 15.5031 140.11 15.1156C140.013 14.728 139.916 14.3404 139.626 13.9528C139.432 13.6621 139.141 13.3715 138.754 13.1777C138.366 12.9839 137.979 12.887 137.494 12.887C137.01 12.887 136.525 12.9839 136.234 13.1777C135.847 13.3715 135.653 13.6621 135.459 13.9528C135.265 14.2435 135.072 14.6311 134.975 15.1156C134.878 15.5031 134.878 15.9876 134.878 16.3752C134.878 16.8597 134.878 17.2473 134.975 17.6348C135.072 18.0224 135.169 18.41 135.459 18.7976C135.653 19.0883 135.944 19.3789 136.234 19.5727C136.525 19.7665 137.01 19.8634 137.494 19.8634Z" fill="#004A3D"/>
    <path d="M145.149 10.7553H148.056V12.2087C148.443 11.6274 148.928 11.1429 149.509 10.9491C150.091 10.6584 150.672 10.5615 151.35 10.5615C152.222 10.5615 152.997 10.7553 153.579 11.046C154.16 11.3367 154.742 11.8212 155.129 12.3056C155.517 12.887 155.807 13.4684 156.001 14.1466C156.195 14.8249 156.292 15.6001 156.292 16.3752C156.292 17.1504 156.195 17.8287 156.001 18.5069C155.807 19.1852 155.517 19.7666 155.129 20.3479C154.742 20.8324 154.257 21.3169 153.579 21.6076C152.901 21.8982 152.222 22.092 151.447 22.092C150.769 22.092 150.091 21.9951 149.606 21.7045C149.025 21.4138 148.54 21.0262 148.153 20.4448V25.6772H145.149V10.7553V10.7553ZM150.672 19.8635C151.156 19.8635 151.544 19.7666 151.932 19.5728C152.222 19.379 152.513 19.0883 152.707 18.7976C152.901 18.5069 153.094 18.1193 153.191 17.7318C153.288 17.3442 153.288 16.8597 153.288 16.3752C153.288 15.8908 153.288 15.5032 153.191 15.1156C153.094 14.728 152.901 14.3404 152.707 13.9529C152.513 13.6622 152.222 13.3715 151.932 13.1777C151.641 12.9839 151.156 12.887 150.672 12.887C150.188 12.887 149.8 12.9839 149.412 13.1777C149.122 13.3715 148.831 13.6622 148.637 13.9529C148.443 14.2435 148.25 14.6311 148.153 15.1156C148.056 15.5032 148.056 15.9876 148.056 16.4721C148.056 16.9566 148.056 17.3442 148.153 17.8287C148.25 18.2162 148.347 18.6038 148.637 18.8945C148.831 19.1852 149.122 19.4759 149.412 19.6697C149.8 19.7666 150.188 19.8635 150.672 19.8635Z" fill="#004A3D"/>
    <path d="M158.133 10.7551H161.04V18.216L165.206 10.7551H168.695V21.8012H165.788V14.3402L161.621 21.8012H158.133V10.7551Z" fill="#004A3D"/>
    <path d="M173.345 17.6349C172.57 17.538 171.892 17.1504 171.407 16.4722C170.923 15.8908 170.632 15.1156 170.632 14.1467C170.632 13.6622 170.729 13.1777 170.923 12.7901C171.117 12.4026 171.31 12.015 171.698 11.7243C171.989 11.4336 172.376 11.1429 172.861 10.9491C173.345 10.7553 173.83 10.6584 174.314 10.6584H181V21.7045H177.996V17.8287H176.543L173.539 21.7045H169.857L173.345 17.6349ZM177.899 12.9839H175.477C174.799 12.9839 174.314 13.0808 174.024 13.3715C173.733 13.6622 173.636 13.9529 173.636 14.3405C173.636 14.728 173.733 15.1156 174.024 15.4063C174.314 15.697 174.799 15.7939 175.477 15.7939H177.899V12.9839Z" fill="#004A3D"/>
    <path d="M60.4625 37.886L56.5866 33.0413H59.8811L63.4662 37.6922V33.0413H66.2762V37.6922L69.8613 33.0413H73.1557L69.183 37.7891L73.6402 44.0873H70.152L66.9544 39.3394L66.2762 40.2115V44.0873H63.4662V40.4053L62.691 39.3394L59.5904 44.0873H56.1022L60.4625 37.886Z" fill="#004A3D"/>
    <path d="M74.7059 33.0413H77.6127V40.5022L81.6823 33.0413H85.1705V44.0873H82.2637V36.6264L78.0972 44.0873H74.7059V33.0413Z" fill="#004A3D"/>
    <path d="M91.9536 44.281C91.2754 44.281 90.5971 44.1841 90.0157 44.0872C89.4344 43.9903 88.853 43.6996 88.3685 43.4089C87.8841 43.1183 87.4965 42.7307 87.2058 42.2462C86.9151 41.7617 86.8182 41.1804 86.7213 40.5021H89.6282C89.7251 41.0835 89.9188 41.5679 90.3064 41.8586C90.694 42.1493 91.2754 42.3431 91.9536 42.3431C92.6319 42.3431 93.1164 42.2462 93.4071 41.9555C93.6978 41.6648 93.8916 41.2773 93.8916 40.8897C93.8916 40.4052 93.6978 40.1145 93.504 39.8238C93.2133 39.5331 92.7288 39.4363 92.0505 39.4363H90.8878V37.4983H91.663C92.3412 37.4983 92.8257 37.4015 93.2133 37.2077C93.6009 37.0139 93.7947 36.6263 93.7947 36.0449C93.7947 35.7542 93.6978 35.4636 93.4071 35.1729C93.1164 34.8822 92.7288 34.7853 92.0505 34.7853C91.4692 34.7853 90.9847 34.8822 90.5971 35.076C90.2095 35.2698 90.0157 35.6573 89.9189 36.2387H87.1089C87.2058 35.5604 87.3027 35.076 87.5934 34.5915C87.8841 34.107 88.2716 33.8163 88.6592 33.5256C89.1437 33.235 89.6282 33.0412 90.2095 32.9443C90.7909 32.8474 91.3723 32.7505 92.0505 32.7505C93.504 32.7505 94.6667 32.9443 95.4419 33.4288C96.217 33.9132 96.6046 34.6884 96.6046 35.6573C96.6046 35.948 96.5077 36.2387 96.4108 36.5294C96.3139 36.8201 96.1201 37.0139 95.9263 37.3046C95.7326 37.5952 95.5388 37.6921 95.2481 37.789C95.0543 37.8859 94.7636 37.9828 94.5698 38.0797C94.8605 38.0797 95.0543 38.1766 95.345 38.2735C95.6357 38.3704 95.8294 38.4673 96.1201 38.758C96.3139 38.9518 96.5077 39.2425 96.7015 39.5331C96.8953 39.8238 96.8953 40.2114 96.8953 40.6959C96.8953 41.2773 96.7984 41.8586 96.5077 42.2462C96.217 42.7307 95.9263 43.0214 95.4419 43.3121C94.9574 43.6027 94.4729 43.7965 93.7947 43.9903C93.4071 44.281 92.7288 44.281 91.9536 44.281Z" fill="#004A3D"/>
    <path d="M99.027 33.0413H102.031V37.014H106.294V33.0413H109.298V44.0873H106.294V39.4363H102.031V44.0873H99.027V33.0413Z" fill="#004A3D"/>
    <path d="M111.623 33.0413H114.53V40.5022L118.696 33.0413H122.088V44.0873H119.181V36.6264L115.111 44.0873H111.623V33.0413Z" fill="#004A3D"/>
    <path d="M28.4872 31.2003L0 2.71313V31.2003H28.4872Z" fill="#38AC57"/>
    <path d="M2.71301 0L20.0572 17.4411V0H2.71301Z" fill="#38AC57"/>
    <path d="M23.9332 21.22L33.9134 31.2002H44.0874V0H23.9332V21.22Z" fill="#38AC57"/>
    <path d="M22.8675 35.0759L13.7593 44.0872H44.0875V35.0759H22.8675Z" fill="#38AC57"/>
    <path d="M17.4411 35.0759H0V44.0872H8.33298L17.4411 35.0759Z" fill="#38AC57"/>
</svg>
