<svg width="129" height="34" viewBox="0 0 129 34" fill="none" xmlns="http://www.w3.org/2000/svg">
    <path d="M0 11.7632L12.709 0.231934L25.4181 11.7632V31.6142H0V11.7632Z" fill="#668F3D"/>
    <path d="M16.4685 23.3286C15.9478 23.3304 15.449 23.538 15.0808 23.9062C14.7126 24.2743 14.505 24.7731 14.5032 25.2938C14.5042 25.4632 14.5296 25.6315 14.5785 25.7937L13.209 26.8071V21.5208L15.0099 20.1513C15.3401 20.46 15.7666 20.6454 16.2176 20.6764C16.6686 20.7073 17.1164 20.5818 17.4857 20.321C17.8549 20.0603 18.123 19.6802 18.2447 19.2449C18.3664 18.8096 18.3343 18.3456 18.1539 17.9312C17.9734 17.5167 17.6556 17.1772 17.254 16.9697C16.8524 16.7622 16.3916 16.6995 15.9492 16.7922C15.5068 16.8849 15.1098 17.1272 14.8252 17.4784C14.5406 17.8296 14.3858 18.2681 14.3868 18.7202C14.3994 19.0337 14.4887 19.3394 14.647 19.6103L13.2775 20.6649V13.338C13.7366 13.2097 14.1336 12.9196 14.3953 12.5211C14.6569 12.1227 14.7654 11.643 14.7006 11.1708C14.6359 10.6986 14.4023 10.2658 14.0432 9.95249C13.684 9.63918 13.2235 9.46655 12.7468 9.46655C12.2702 9.46655 11.8097 9.63918 11.4505 9.95249C11.0913 10.2658 10.8577 10.6986 10.793 11.1708C10.7283 11.643 10.8367 12.1227 11.0984 12.5211C11.36 12.9196 11.7571 13.2097 12.2161 13.338V17.3438L10.7097 16.214C10.8762 15.9191 10.9657 15.5871 10.9699 15.2485C10.9732 14.7945 10.8208 14.3531 10.5381 13.9978C10.2555 13.6425 9.85967 13.3948 9.41658 13.296C8.97349 13.1971 8.5099 13.2531 8.10305 13.4545C7.69619 13.6559 7.37065 13.9907 7.18064 14.403C6.99063 14.8153 6.94764 15.2803 7.05883 15.7204C7.17001 16.1606 7.42866 16.5494 7.79168 16.822C8.1547 17.0946 8.60018 17.2346 9.05388 17.2187C9.50759 17.2027 9.94214 17.0318 10.2851 16.7344L12.223 18.1929V24.9857L10.9082 23.9928C11.0504 23.7199 11.1255 23.4171 11.1274 23.1094C11.1307 22.6553 10.9771 22.214 10.6927 21.8599C10.4082 21.5059 10.0103 21.2609 9.56611 21.1663C9.12193 21.0717 8.6587 21.1333 8.25469 21.3407C7.85067 21.5481 7.53061 21.8886 7.34858 22.3047C7.16655 22.7207 7.1337 23.1869 7.25558 23.6244C7.37746 24.0619 7.6466 24.4439 8.01754 24.7059C8.38847 24.9679 8.83848 25.0939 9.29154 25.0625C9.7446 25.0311 10.173 24.8444 10.5042 24.5337L12.223 25.8279V31.6141H13.2843V27.6836L14.9209 26.4579C15.1151 26.7343 15.3773 26.956 15.6821 27.1015C15.987 27.2471 16.3242 27.3116 16.6613 27.2888C16.9983 27.2661 17.3238 27.1568 17.6063 26.9716C17.8888 26.7864 18.1188 26.5315 18.2741 26.2315C18.4294 25.9316 18.5048 25.5966 18.4929 25.259C18.4811 24.9214 18.3824 24.5926 18.2064 24.3042C18.0304 24.0159 17.7831 23.7777 17.4882 23.6128C17.1934 23.4479 16.861 23.3618 16.5232 23.3628L16.4685 23.3286ZM16.3726 17.5492C16.6055 17.5492 16.8332 17.6183 17.0269 17.7477C17.2206 17.8771 17.3716 18.0611 17.4607 18.2763C17.5499 18.4915 17.5732 18.7283 17.5277 18.9568C17.4823 19.1853 17.3701 19.3951 17.2054 19.5598C17.0407 19.7245 16.8308 19.8367 16.6024 19.8822C16.3739 19.9276 16.1371 19.9043 15.9219 19.8151C15.7067 19.726 15.5227 19.575 15.3933 19.3813C15.2639 19.1877 15.1948 18.96 15.1948 18.727C15.1948 18.5723 15.2253 18.4192 15.2845 18.2763C15.3437 18.1334 15.4304 18.0036 15.5398 17.8942C15.6491 17.7848 15.779 17.6981 15.9219 17.6389C16.0648 17.5797 16.2179 17.5492 16.3726 17.5492ZM8.9567 16.4194C8.72347 16.4194 8.49548 16.3501 8.30165 16.2204C8.10782 16.0907 7.95687 15.9063 7.86794 15.6907C7.779 15.4751 7.75608 15.238 7.80208 15.0093C7.84808 14.7807 7.96094 14.5708 8.12634 14.4064C8.29174 14.2419 8.50224 14.1303 8.73115 14.0856C8.96007 14.041 9.19709 14.0653 9.41218 14.1555C9.62727 14.2457 9.81073 14.3977 9.93932 14.5923C10.0679 14.7868 10.1358 15.0152 10.1345 15.2485C10.1327 15.5596 10.0078 15.8575 9.7871 16.0768C9.56642 16.2962 9.26788 16.4194 8.9567 16.4194ZM9.10735 24.2598C8.87383 24.2612 8.64517 24.1931 8.45044 24.0642C8.25571 23.9353 8.10369 23.7514 8.0137 23.5359C7.92371 23.3204 7.89981 23.0831 7.94504 22.854C7.99026 22.6249 8.10258 22.4144 8.2677 22.2493C8.43283 22.0841 8.64332 21.9718 8.87242 21.9266C9.10152 21.8814 9.3389 21.9053 9.55439 21.9953C9.76987 22.0852 9.95375 22.2373 10.0826 22.432C10.2115 22.6267 10.2796 22.8554 10.2783 23.0889C10.2765 23.3989 10.1525 23.6957 9.93333 23.9149C9.71413 24.1341 9.41734 24.258 9.10735 24.2598ZM11.5245 11.4549C11.522 11.2232 11.5878 10.9959 11.7139 10.8014C11.8399 10.6069 12.0205 10.4539 12.2331 10.3616C12.4456 10.2693 12.6807 10.2418 12.9089 10.2824C13.137 10.3231 13.3481 10.4302 13.5157 10.5902C13.6833 10.7503 13.7999 10.9562 13.851 11.1822C13.9021 11.4083 13.8854 11.6444 13.803 11.861C13.7205 12.0775 13.576 12.265 13.3875 12.3998C13.1991 12.5347 12.975 12.6109 12.7434 12.619H12.6544C12.3522 12.6084 12.0658 12.4813 11.8552 12.2643C11.6446 12.0473 11.5261 11.7573 11.5245 11.4549ZM16.4685 26.4647C16.2369 26.4647 16.0105 26.3961 15.8179 26.2674C15.6254 26.1387 15.4753 25.9559 15.3867 25.7419C15.298 25.5279 15.2748 25.2925 15.32 25.0654C15.3652 24.8382 15.4767 24.6296 15.6405 24.4658C15.8042 24.3021 16.0129 24.1906 16.24 24.1454C16.4672 24.1002 16.7026 24.1234 16.9165 24.212C17.1305 24.3006 17.3134 24.4507 17.442 24.6433C17.5707 24.8358 17.6394 25.0622 17.6394 25.2938C17.6403 25.4478 17.6106 25.6005 17.5521 25.743C17.4936 25.8854 17.4074 26.0149 17.2985 26.1238C17.1895 26.2327 17.0601 26.3189 16.9176 26.3775C16.7751 26.436 16.6225 26.4656 16.4685 26.4647Z" fill="white"/>
    <path d="M34.0461 22.3425H32.4506V22.1165L36.8947 12.126H37.5863L42.0372 22.1165V22.3425H40.4006L37.2439 14.9266L34.0461 22.3425Z" fill="#4B4A4A"/>
    <path d="M46.0291 18.9668L42.3451 12.3932V12.1877H44.2008L46.8919 17.2549H46.9466L49.3707 12.1877H51.1716V12.3589L47.1658 20.3569C46.3646 22.1167 45.3375 23.0959 43.112 22.2331L43.3448 20.9115C44.3925 21.3703 45.0293 21.0553 45.495 20.0556L46.0291 18.9668Z" fill="#4B4A4A"/>
    <path d="M54.2872 13.6805V22.3427H52.5891V12.1877H58.6423V13.6805H54.2872Z" fill="#4B4A4A"/>
    <path d="M64.6817 22.5209C63.9906 22.5436 63.3022 22.4226 62.6603 22.1653C62.0184 21.9081 61.437 21.5203 60.9528 21.0265C60.4687 20.5327 60.0925 19.9437 59.8479 19.2968C59.6034 18.65 59.496 17.9594 59.5324 17.2688C59.5071 16.5736 59.6222 15.8804 59.8708 15.2307C60.1193 14.581 60.4963 13.988 60.9792 13.4872C61.4621 12.9864 62.041 12.5881 62.6812 12.3161C63.3215 12.044 64.01 11.9038 64.7057 11.9038C65.4014 11.9038 66.0899 12.044 66.7302 12.3161C67.3704 12.5881 67.9493 12.9864 68.4322 13.4872C68.9151 13.988 69.2921 14.581 69.5406 15.2307C69.7892 15.8804 69.9043 16.5736 69.879 17.2688C69.9149 17.9633 69.8054 18.6576 69.5576 19.3074C69.3098 19.9572 68.9292 20.5481 68.44 21.0424C67.9509 21.5367 67.364 21.9235 66.7168 22.1781C66.0697 22.4327 65.3766 22.5494 64.6817 22.5209ZM64.6817 20.9254C65.1585 20.9415 65.6333 20.8565 66.075 20.6761C66.5166 20.4957 66.9151 20.2239 67.2443 19.8785C67.5734 19.5332 67.8258 19.1222 67.9849 18.6724C68.1439 18.2226 68.206 17.7443 68.1671 17.2688C68.2024 16.7943 68.1384 16.3176 67.9792 15.8692C67.8199 15.4208 67.569 15.0105 67.2423 14.6645C66.9156 14.3185 66.5204 14.0444 66.0819 13.8597C65.6434 13.675 65.1712 13.5837 64.6954 13.5917C62.785 13.5917 61.2169 14.9132 61.2169 17.2688C61.2169 19.6244 62.7987 20.9254 64.7091 20.9254H64.6817Z" fill="#4B4A4A"/>
    <path d="M80.6916 12.1604H81.3147V22.3427H79.6165V15.9882L76.6858 19.7475H76.4529L73.5359 15.9882V22.3427H71.8377V12.1604H72.4608L76.5694 17.4125L80.6916 12.1604Z" fill="#4B4A4A"/>
    <path d="M90.0246 13.6668H85.5394V16.3511H89.7781V17.8438H85.5394V20.8362H90.1136V22.3427H83.8412V12.1877H90.004L90.0246 13.6668Z" fill="#4B4A4A"/>
    <path d="M91.2298 13.6805V12.1877H98.7621V13.6805H95.8176V22.3427H94.1605V13.6805H91.2298Z" fill="#4B4A4A"/>
    <path d="M100.317 22.3427V12.1877H104.521C105.463 12.1877 106.367 12.5622 107.034 13.2287C107.7 13.8951 108.075 14.7991 108.075 15.7416C108.075 16.6842 107.7 17.5881 107.034 18.2546C106.367 18.9211 105.463 19.2955 104.521 19.2955H102.015V22.3427H100.317ZM104.521 17.8164C104.789 17.815 105.054 17.7591 105.299 17.6519C105.545 17.5448 105.766 17.3888 105.949 17.1933C106.132 16.9979 106.274 16.7671 106.365 16.5152C106.456 16.2633 106.495 15.9954 106.479 15.7279C106.494 15.4623 106.455 15.1965 106.363 14.9468C106.271 14.6971 106.129 14.469 105.945 14.2764C105.762 14.0839 105.541 13.931 105.296 13.8273C105.051 13.7237 104.787 13.6714 104.521 13.6737H101.98V17.837L104.521 17.8164Z" fill="#4B4A4A"/>
    <path d="M110.355 22.363H109.78V12.1876H111.457V15.8852L111.341 18.994L117.504 12.1465H118.113V22.3425H116.449V18.6585L116.559 15.4402L110.355 22.363Z" fill="#4B4A4A"/>
    <path d="M122.421 18.5423C121.796 18.3335 121.254 17.9319 120.873 17.3954C120.491 16.8588 120.29 16.215 120.298 15.5567C120.289 15.0985 120.376 14.6434 120.552 14.2203C120.729 13.7973 120.991 13.4153 121.322 13.0987C121.654 12.7821 122.047 12.5377 122.478 12.3809C122.908 12.2241 123.367 12.1583 123.824 12.1878H128.022V22.3427H126.324V18.7819H124.085L121.667 22.3221H119.853V22.0756L122.421 18.5423ZM126.351 17.4124V13.6668H123.838C123.59 13.6514 123.341 13.6881 123.107 13.7745C122.874 13.8609 122.661 13.9951 122.482 14.1685C122.304 14.3419 122.164 14.5507 122.07 14.7815C121.977 15.0123 121.933 15.26 121.941 15.5088C121.931 15.761 121.972 16.0127 122.064 16.248C122.155 16.4833 122.295 16.6971 122.473 16.8759C122.651 17.0548 122.864 17.1948 123.099 17.2871C123.334 17.3794 123.586 17.4221 123.838 17.4124H126.351Z" fill="#4B4A4A"/>
    <path d="M36.2099 29.4367H35.4772V31.4156H35.0801V29.4367H34.3474L32.9163 31.4156H32.4506L34.0324 29.2449L32.5739 27.1907H33.0464L34.3748 29.0669H35.1006V27.2112H35.4978V29.0874H36.2236L37.5931 27.2112H38.0656L36.5934 29.2655L38.1889 31.4362H37.689L36.2099 29.4367Z" fill="#4B4A4A"/>
    <path d="M42.3727 27.2112V31.4156H41.9618V29.3613C41.9618 28.6355 41.9618 28.1082 41.9618 27.6631C41.6263 28.1767 41.236 28.7245 40.7909 29.3682L39.3803 31.3813H38.9557V27.2112H39.3666V29.4709C39.3666 29.9707 39.3666 30.3953 39.3666 30.9157C39.7158 30.3747 40.0514 29.868 40.5101 29.2244L41.9344 27.2112H42.3727Z" fill="#4B4A4A"/>
    <path d="M43.1395 31.4019L43.1875 31.0459C43.2991 31.0563 43.4114 31.0563 43.523 31.0459C44.0366 31.0459 44.153 30.6829 44.1598 29.2381V27.1838H46.9878V31.3882H46.5633V27.5673H44.509V29.3203C44.509 30.8952 44.331 31.443 43.5024 31.443C43.3805 31.4407 43.259 31.4269 43.1395 31.4019Z" fill="#4B4A4A"/>
    <path d="M51.5073 28.4232V31.4156H51.1101V30.8267C50.9418 31.0602 50.7157 31.246 50.4541 31.366C50.1925 31.4861 49.9041 31.5362 49.6174 31.5114C48.7888 31.5114 48.1177 31.1554 48.1177 30.3542C48.1177 29.3818 49.0559 29.1559 50.1241 28.9847L51.0896 28.7998V28.4848C51.0896 27.8001 50.6102 27.4645 49.9323 27.4645C49.6486 27.4693 49.3698 27.5398 49.118 27.6705C48.8661 27.8012 48.6479 27.9885 48.4807 28.2178L48.1999 27.9576C48.4023 27.6956 48.6615 27.483 48.9581 27.3359C49.2546 27.1888 49.5808 27.111 49.9118 27.1085C50.9389 27.1016 51.5073 27.6837 51.5073 28.4232ZM51.0896 29.9776V29.149L50.2062 29.3202C49.2955 29.4982 48.5423 29.6489 48.5423 30.361C48.5423 30.8815 48.9874 31.1896 49.631 31.1896C49.807 31.2094 49.9852 31.1935 50.1549 31.1427C50.3246 31.092 50.4823 31.0075 50.6185 30.8943C50.7547 30.7811 50.8667 30.6416 50.9476 30.484C51.0286 30.3265 51.0769 30.1542 51.0896 29.9776Z" fill="#4B4A4A"/>
    <path d="M55.7322 27.2114V31.4158H55.3282V29.7382H54.4243L52.9178 31.3953H52.3974L53.9176 29.7382C53.7478 29.7437 53.5786 29.715 53.4201 29.6538C53.2617 29.5926 53.1171 29.5002 52.9951 29.382C52.8731 29.2638 52.7761 29.1223 52.7099 28.9658C52.6437 28.8094 52.6096 28.6413 52.6097 28.4714C52.6097 27.6839 53.226 27.2046 54.1024 27.2046L55.7322 27.2114ZM55.3282 27.5675H54.1846C53.4999 27.5675 53.0342 27.8756 53.0342 28.4782C53.0342 29.0808 53.4588 29.4027 54.1778 29.4027H55.3282V27.5675Z" fill="#4B4A4A"/>
    <path d="M61.9359 31.4156V27.5673H59.5325V31.4156H59.1079V27.2112H62.3605V31.4156H61.9359Z" fill="#4B4A4A"/>
    <path d="M67.4759 29.3202C67.4759 30.6213 66.709 31.5183 65.6407 31.5183C65.3352 31.5375 65.0304 31.469 64.7624 31.3211C64.4943 31.1731 64.2741 30.9517 64.1274 30.6829V33.0111H63.7029V27.2112H64.1V28.0398C64.2377 27.75 64.4582 27.5075 64.7337 27.3429C65.0091 27.1784 65.3271 27.0992 65.6476 27.1153C66.7363 27.1153 67.4759 28.0055 67.4759 29.3202ZM67.0376 29.3202C67.0376 28.2246 66.483 27.4646 65.6681 27.4646C64.8533 27.4646 64.1274 28.1493 64.1274 29.3202C64.1274 30.4912 64.7779 31.1622 65.6613 31.1622C66.5446 31.1622 67.0376 30.4227 67.0376 29.3202Z" fill="#4B4A4A"/>
    <path d="M71.9333 27.2112V31.4156H71.5225V29.3613C71.5225 28.6355 71.5225 28.1082 71.5225 27.6631C71.187 28.1767 70.7967 28.7245 70.3447 29.3682L68.9752 31.3813H68.5507V27.2112H68.9615V29.4709C68.9615 29.9707 68.9615 30.3953 68.9615 30.9157C69.3039 30.3747 69.6463 29.868 70.1051 29.2244L71.4814 27.2112H71.9333Z" fill="#4B4A4A"/>
    <path d="M77.0486 29.3202C77.0486 30.6213 76.2748 31.5183 75.2066 31.5183C74.901 31.5374 74.5963 31.469 74.3282 31.321C74.0602 31.1731 73.8399 30.9517 73.6933 30.6829V33.0111H73.2687V27.2112H73.6727V28.0397C73.8097 27.7494 74.03 27.5064 74.3056 27.3417C74.5813 27.1771 74.8997 27.0983 75.2203 27.1153C76.2748 27.1153 77.0486 28.0055 77.0486 29.3202ZM76.6035 29.3202C76.6035 28.2246 76.0488 27.4645 75.234 27.4645C74.4191 27.4645 73.7001 28.1493 73.7001 29.3202C73.7001 30.4912 74.3438 31.1622 75.2271 31.1622C76.1105 31.1622 76.6035 30.4227 76.6035 29.3202Z" fill="#4B4A4A"/>
    <path d="M81.787 29.3204C81.7434 29.7021 81.5904 30.0631 81.3464 30.3599C81.1024 30.6567 80.7778 30.8766 80.4117 30.9932C80.0456 31.1097 79.6536 31.1179 79.2829 31.0169C78.9122 30.9158 78.5787 30.7097 78.3225 30.4234C78.0662 30.1371 77.8982 29.7828 77.8387 29.4033C77.7791 29.0237 77.8306 28.635 77.9868 28.284C78.1431 27.933 78.3975 27.6347 78.7194 27.4249C79.0413 27.2152 79.417 27.103 79.8012 27.1018C80.0821 27.102 80.3598 27.1615 80.6163 27.2762C80.8727 27.391 81.102 27.5585 81.2894 27.7678C81.4768 27.9771 81.6179 28.2236 81.7036 28.4911C81.7894 28.7586 81.8178 29.0412 81.787 29.3204ZM78.2605 29.3204C78.2605 30.4023 78.8562 31.1692 79.8012 31.1692C80.7462 31.1692 81.3488 30.4023 81.3488 29.3204C81.3488 28.2385 80.753 27.4579 79.8012 27.4579C78.8494 27.4579 78.2605 28.2385 78.2605 29.3204Z" fill="#4B4A4A"/>
    <path d="M82.4377 31.0664H82.828C83.1361 30.7788 83.4306 30.1899 83.4443 28.7108V27.2112H86.2449V31.0664H86.9297V32.5249H86.512V31.4156H82.8554V32.5249H82.4377V31.0664ZM85.8615 31.0664V27.5673H83.8072V28.7382C83.8072 30.1967 83.5401 30.7925 83.2662 31.0664H85.8615Z" fill="#4B4A4A"/>
    <path d="M91.0244 28.4232V31.4156H90.6546V30.8267C90.4857 31.0612 90.2585 31.2477 89.9956 31.3678C89.7326 31.4879 89.4429 31.5374 89.155 31.5114C88.3333 31.5114 87.6622 31.1554 87.6622 30.3542C87.6622 29.3818 88.6003 29.1559 89.6686 28.9847L90.6341 28.7998V28.4848C90.6341 27.8001 90.1547 27.4645 89.4768 27.4645C89.1931 27.4693 88.9143 27.5398 88.6624 27.6705C88.4106 27.8012 88.1924 27.9885 88.0252 28.2178L87.7444 27.9576C87.9467 27.6956 88.206 27.483 88.5026 27.3359C88.7991 27.1888 89.1253 27.111 89.4563 27.1085C90.4492 27.1016 91.0244 27.6837 91.0244 28.4232ZM90.6067 29.9776V29.149L89.7233 29.3202C88.8126 29.4982 88.0594 29.6489 88.0594 30.361C88.0594 30.8815 88.5045 31.1896 89.1481 31.1896C89.3241 31.2094 89.5023 31.1935 89.672 31.1427C89.8417 31.092 89.9994 31.0075 90.1356 30.8943C90.2718 30.7811 90.3838 30.6416 90.4647 30.484C90.5457 30.3265 90.5939 30.1542 90.6067 29.9776Z" fill="#4B4A4A"/>
</svg>
