<svg width="116" height="33" viewBox="0 0 116 33" fill="none" xmlns="http://www.w3.org/2000/svg">
    <path d="M41.7988 11.6557H39.9242L39.4494 10.3533H36.1505L35.6636 11.6557H33.795L36.7713 3.9502H38.8347L41.7988 11.6557ZM38.999 8.91074L37.7817 5.59357L36.5644 8.91074H38.999Z" fill="#4D4D4F"/>
    <path d="M44.1542 11.6557H42.4865V3.9502H46.1384C46.4871 3.93011 46.8361 3.98307 47.1631 4.1057C47.4901 4.22833 47.7879 4.41792 48.0374 4.66231C48.481 5.14431 48.7272 5.77544 48.7272 6.43047C48.7272 7.0855 48.481 7.71659 48.0374 8.19859C47.7887 8.44269 47.4921 8.63254 47.1663 8.75617C46.8405 8.87979 46.4926 8.93448 46.1445 8.9168H44.1846L44.1542 11.6557ZM45.895 7.48038C46.1927 7.488 46.4829 7.38624 46.7106 7.19433C46.8107 7.09578 46.8902 6.97831 46.9445 6.84873C46.9987 6.71916 47.0267 6.58009 47.0267 6.43961C47.0267 6.29913 46.9987 6.16006 46.9445 6.03048C46.8902 5.90091 46.8107 5.7834 46.7106 5.68485C46.4856 5.48822 46.1935 5.38579 45.895 5.3988H44.1542V7.48038H45.895Z" fill="#4D4D4F"/>
    <path d="M49.7174 3.9502H55.3413V5.3927H51.3547V6.75608H53.3571C53.7008 6.73494 54.0451 6.78695 54.3672 6.90866C54.6893 7.03036 54.9819 7.21902 55.2257 7.46214C55.6646 7.93679 55.9084 8.55947 55.9084 9.20593C55.9084 9.85239 55.6646 10.4751 55.2257 10.9497C54.9796 11.1893 54.6864 11.3752 54.3648 11.4956C54.0432 11.6161 53.7001 11.6686 53.3571 11.6497H49.7052L49.7174 3.9502ZM53.138 8.21078H51.3547V10.2193H53.138C53.4268 10.2307 53.7093 10.1329 53.9293 9.94543C54.0289 9.85223 54.1076 9.73894 54.16 9.61302C54.2125 9.48709 54.2376 9.35144 54.2336 9.21507C54.2396 9.07845 54.2155 8.94217 54.1629 8.81594C54.1103 8.68971 54.0305 8.57661 53.9293 8.48468C53.7093 8.29723 53.4268 8.19944 53.138 8.21078Z" fill="#4D4D4F"/>
    <path d="M62.3774 11.6619H56.9239V3.9563H62.3774V5.39881H58.5672V7.03H62.2922V8.47252H58.5672V10.2133H62.3774V11.6619Z" fill="#4D4D4F"/>
    <path d="M70.2535 11.6619H68.2328L65.8956 8.57599L65.2991 9.2942V11.6619H63.6557V3.9563H65.2991V7.40128L68.0259 3.9563H70.0466L66.9851 7.57171L70.2535 11.6619Z" fill="#4D4D4F"/>
    <path d="M74.1366 11.7958C73.6055 11.8131 73.0764 11.7222 72.5815 11.5286C72.0866 11.335 71.6362 11.0428 71.2577 10.6698C70.527 9.89775 70.1198 8.87514 70.1198 7.81214C70.1198 6.74914 70.527 5.72656 71.2577 4.95454C72.0442 4.23081 73.0739 3.8291 74.1427 3.8291C75.2115 3.8291 76.2413 4.23081 77.0277 4.95454C77.7593 5.72859 78.1668 6.75321 78.1668 7.81823C78.1668 8.88326 77.7593 9.90791 77.0277 10.682C76.6467 11.0545 76.194 11.3459 75.697 11.5384C75.2001 11.7309 74.6692 11.8206 74.1366 11.8019V11.7958ZM72.4445 9.629C72.6647 9.85595 72.9282 10.0364 73.2194 10.1596C73.5106 10.2828 73.8235 10.3463 74.1397 10.3463C74.4558 10.3463 74.7688 10.2828 75.06 10.1596C75.3512 10.0364 75.6146 9.85595 75.8348 9.629C76.2604 9.1157 76.4933 8.46984 76.4933 7.80304C76.4933 7.13623 76.2604 6.49038 75.8348 5.97708C75.6146 5.75013 75.3512 5.56969 75.06 5.44647C74.7688 5.32326 74.4558 5.25976 74.1397 5.25976C73.8235 5.25976 73.5106 5.32326 73.2194 5.44647C72.9282 5.56969 72.6647 5.75013 72.4445 5.97708C72.0233 6.49237 71.7932 7.13747 71.7932 7.80304C71.7932 8.46861 72.0233 9.1137 72.4445 9.629Z" fill="#4D4D4F"/>
    <path d="M83.4736 11.6557H79.2921V3.95017H83.3457C83.643 3.93156 83.941 3.97257 84.2222 4.07083C84.5033 4.16908 84.762 4.3226 84.983 4.5223C85.1694 4.70164 85.3168 4.91738 85.4163 5.15611C85.5158 5.39483 85.5651 5.65142 85.5613 5.91002C85.577 6.33557 85.4435 6.75326 85.1839 7.09081C85.0748 7.04563 84.956 7.02931 84.8388 7.04337C84.7216 7.05742 84.61 7.1014 84.5147 7.17109C84.4194 7.24077 84.3436 7.3338 84.2947 7.44124C84.2458 7.54867 84.2254 7.66688 84.2354 7.7845C84.2454 7.90211 84.2855 8.01519 84.3518 8.11282C84.4182 8.21045 84.5085 8.28936 84.6142 8.34196C84.7199 8.39456 84.8373 8.4191 84.9552 8.41317C85.0731 8.40725 85.1875 8.37105 85.2874 8.30812C85.5719 8.66559 85.7226 9.11124 85.7134 9.56803C85.7196 9.84504 85.6688 10.1204 85.5641 10.3769C85.4594 10.6335 85.303 10.8657 85.1048 11.0592C84.8851 11.2667 84.6257 11.4276 84.3422 11.5322C84.0588 11.6368 83.7571 11.6829 83.4553 11.6679L83.4736 11.6557ZM82.9684 7.04823C83.0879 7.05632 83.2078 7.03996 83.3209 7.0002C83.4339 6.96044 83.5376 6.89809 83.6257 6.81694C83.7084 6.73953 83.7731 6.64487 83.8152 6.5397C83.8572 6.43452 83.8757 6.32138 83.8692 6.20829C83.8741 6.09482 83.8543 5.98162 83.8112 5.87654C83.7681 5.77146 83.7028 5.677 83.6196 5.59963C83.5323 5.51874 83.4297 5.45606 83.3179 5.4153C83.2061 5.37454 83.0873 5.35651 82.9684 5.36225H80.9111V7.03605L82.9684 7.04823ZM83.0292 10.2497C83.2919 10.2644 83.5505 10.1797 83.7535 10.0124C83.843 9.92993 83.9133 9.82891 83.9596 9.71641C84.0058 9.6039 84.0269 9.48263 84.0213 9.36111C84.0198 9.24689 83.9953 9.13415 83.9493 9.02959C83.9033 8.92503 83.8367 8.83078 83.7535 8.75246C83.6567 8.66218 83.5427 8.59245 83.4182 8.54747C83.2937 8.50249 83.1614 8.48319 83.0292 8.49074H80.9111V10.2802L83.0292 10.2497Z" fill="#4D4D4F"/>
    <path d="M90.68 11.7957C90.1428 11.8119 89.6076 11.7218 89.1052 11.5306C88.6028 11.3395 88.1431 11.0511 87.7524 10.6819C86.9989 9.91672 86.5766 8.88592 86.5766 7.81206C86.5766 6.7382 86.9989 5.70744 87.7524 4.94228C88.1431 4.57309 88.6028 4.28466 89.1052 4.09353C89.6076 3.90239 90.1428 3.81229 90.68 3.82843C91.3402 3.80213 91.9941 3.96523 92.5647 4.29848C93.1352 4.63172 93.5984 5.12122 93.8998 5.70919L92.4938 6.38478C92.3181 6.05665 92.0601 5.77979 91.7452 5.58136C91.4296 5.37202 91.0587 5.26178 90.68 5.26484C90.3565 5.2551 90.0347 5.31408 89.7357 5.43789C89.4366 5.56169 89.1673 5.74753 88.9454 5.98309C88.4975 6.48586 88.25 7.13571 88.25 7.80905C88.25 8.48239 88.4975 9.13225 88.9454 9.63501C89.1673 9.87058 89.4366 10.0564 89.7357 10.1802C90.0347 10.304 90.3565 10.363 90.68 10.3532C91.0577 10.3556 91.4279 10.2477 91.7452 10.0428C92.0631 9.8454 92.3218 9.56568 92.4938 9.23328L93.8998 9.91497C93.5955 10.5014 93.132 10.9901 92.5624 11.3249C91.9929 11.6598 91.3404 11.8272 90.68 11.8079" fill="#4D4D4F"/>
    <path d="M101.477 11.6619H99.4566L97.1255 8.57599L96.5229 9.2942V11.6619H94.8856V3.9563H96.5229V7.40128L99.2497 3.9563H101.27L98.2089 7.57171L101.477 11.6619Z" fill="#4D4D4F"/>
    <path d="M109.439 11.6557H107.57L107.095 10.3533H103.79L103.31 11.6557H101.404L104.387 3.9502H106.444L109.439 11.6557ZM106.645 8.91074L105.428 5.59357L104.21 8.91074H106.645Z" fill="#4D4D4F"/>
    <path d="M111.672 11.6558H109.792L111.52 8.72207C111.04 8.62156 110.609 8.35682 110.303 7.9734C109.96 7.538 109.785 6.99352 109.81 6.43962C109.799 6.10946 109.856 5.78055 109.976 5.47292C110.096 5.16528 110.278 4.88536 110.51 4.65017C110.762 4.41358 111.058 4.23017 111.383 4.11095C111.707 3.99173 112.052 3.93914 112.397 3.9563H116V11.6558H114.363V8.9229H113.145L111.672 11.6558ZM112.665 7.48039H114.387V5.39881H112.665C112.362 5.38452 112.066 5.48691 111.837 5.68486C111.735 5.78254 111.654 5.89976 111.599 6.02945C111.544 6.15914 111.515 6.29866 111.515 6.43962C111.515 6.58058 111.544 6.72006 111.599 6.84975C111.654 6.97944 111.735 7.09666 111.837 7.19434C112.068 7.38909 112.363 7.49104 112.665 7.48039Z" fill="#4D4D4F"/>
    <path d="M37.2584 24.2124C36.6148 24.2207 35.9759 24.1028 35.3776 23.8655C34.8774 23.6835 34.4314 23.3778 34.0812 22.9769L34.9394 21.8813C35.2268 22.1598 35.5747 22.3681 35.9559 22.49C36.3447 22.6395 36.7567 22.7198 37.1732 22.7273C37.5828 22.7491 37.9901 22.6541 38.3479 22.4535C38.4765 22.3858 38.5842 22.2842 38.6593 22.1598C38.7344 22.0354 38.774 21.8927 38.7739 21.7474C38.7739 21.1387 38.2079 20.8588 37.0758 20.8588H35.5176V19.4102H37.0758C37.4679 19.4279 37.859 19.3571 38.22 19.2032C38.3446 19.1573 38.4522 19.0744 38.5284 18.9656C38.6045 18.8568 38.6456 18.7274 38.6461 18.5946C38.6424 18.4588 38.6012 18.3266 38.5271 18.2128C38.453 18.0989 38.3488 18.0077 38.2261 17.9494C37.8742 17.7779 37.4852 17.6963 37.0941 17.712C36.7106 17.7001 36.3286 17.7644 35.9702 17.9013C35.6118 18.0382 35.2842 18.2449 35.0064 18.5094L34.1847 17.4807C34.5405 17.089 34.9821 16.7849 35.475 16.5921C36.0409 16.3617 36.6474 16.2478 37.2584 16.2573C38.0329 16.2215 38.8004 16.4187 39.4617 16.8234C39.7239 16.9805 39.9401 17.2037 40.0886 17.4708C40.2371 17.738 40.3127 18.0395 40.3077 18.345C40.3128 18.5633 40.2708 18.78 40.1847 18.9806C40.0986 19.1812 39.9703 19.3609 39.8086 19.5076C39.4849 19.8208 39.0765 20.0324 38.6339 20.1162C39.0887 20.1696 39.5148 20.3656 39.8512 20.6762C40.0345 20.8349 40.1799 21.0327 40.2767 21.2549C40.3736 21.4771 40.4196 21.7182 40.4112 21.9605C40.4118 22.2851 40.3307 22.6045 40.1754 22.8896C40.0201 23.1746 39.7956 23.4161 39.5226 23.5916C38.846 24.0273 38.05 24.2401 37.2462 24.2003" fill="#4D4D4F"/>
    <path d="M48.841 24.0723H46.9724L46.4977 22.7698H43.1926L42.7057 24.0723H40.8372L43.8196 16.3728H45.8707L48.841 24.0723ZM46.0472 21.3273L44.8299 18.0101L43.6126 21.3273H46.0472Z" fill="#4D4D4F"/>
    <path d="M52.8948 24.2122C52.3575 24.2283 51.8224 24.1383 51.32 23.9471C50.8176 23.756 50.3579 23.4676 49.9672 23.0984C49.2137 22.3332 48.7914 21.3024 48.7914 20.2286C48.7914 19.1547 49.2137 18.1239 49.9672 17.3588C50.3579 16.9896 50.8176 16.7012 51.32 16.51C51.8224 16.3189 52.3575 16.2288 52.8948 16.2449C53.555 16.2186 54.2089 16.3817 54.7794 16.715C55.3499 17.0482 55.8132 17.5377 56.1146 18.1257L54.7086 18.8195C54.5329 18.4914 54.2749 18.2145 53.96 18.0161C53.6444 17.8068 53.2735 17.6966 52.8948 17.6996C52.5713 17.6899 52.2495 17.7488 51.9504 17.8726C51.6514 17.9964 51.3821 18.1823 51.1602 18.4178C50.7123 18.9206 50.4648 19.5705 50.4648 20.2438C50.4648 20.9171 50.7123 21.567 51.1602 22.0698C51.3821 22.3053 51.6514 22.4911 51.9504 22.6149C52.2495 22.7387 52.5713 22.7977 52.8948 22.788C53.2725 22.7903 53.6427 22.6824 53.96 22.4775C54.2779 22.2801 54.5366 22.0004 54.7086 21.668L56.1146 22.3497C55.8103 22.9362 55.3468 23.4249 54.7772 23.7597C54.2077 24.0946 53.5552 24.2619 52.8948 24.2427" fill="#4D4D4F"/>
    <path d="M60.5271 24.0784H58.8776V17.8153H56.6256V16.3728H62.7669V17.8153H60.5271V24.0784Z" fill="#4D4D4F"/>
    <path d="M70.2595 24.0723H68.391L67.9162 22.7698H64.6173L64.1304 24.0723H62.2618L65.2381 16.3728H67.2954L70.2595 24.0723ZM67.4415 21.3273L66.2242 18.0101L65.0068 21.3273H67.4415Z" fill="#4D4D4F"/>
    <path d="M75.1591 24.0723H70.9777V16.3728H75.0313C75.3277 16.3536 75.6249 16.3944 75.9052 16.4927C76.1855 16.591 76.4431 16.7448 76.6625 16.9449C76.9971 17.2783 77.2018 17.7202 77.2397 18.191C77.2776 18.6618 77.1463 19.1308 76.8695 19.5134C76.6361 19.8236 76.2992 20.0396 75.92 20.1221C76.3374 20.1786 76.7157 20.3972 76.9729 20.7308C77.2754 21.1335 77.425 21.6306 77.3949 22.1334C77.3648 22.6362 77.157 23.112 76.8086 23.4758C76.5898 23.6844 76.3305 23.8461 76.0468 23.9507C75.7632 24.0554 75.4611 24.1009 75.1591 24.0845V24.0723ZM74.6722 19.4647C74.7918 19.4728 74.9117 19.4565 75.0247 19.4167C75.1377 19.377 75.2415 19.3146 75.3296 19.2335C75.4123 19.156 75.4769 19.0614 75.519 18.9562C75.5611 18.851 75.5795 18.7379 75.573 18.6248C75.5779 18.5113 75.5582 18.3982 75.5151 18.2931C75.472 18.188 75.4066 18.0935 75.3235 18.0161C75.236 17.9355 75.1334 17.8731 75.0216 17.8323C74.9098 17.7916 74.7911 17.7734 74.6722 17.7788H72.615V19.4526L74.6722 19.4647ZM74.7331 22.6663C74.9958 22.681 75.2544 22.5962 75.4574 22.4289C75.5468 22.3464 75.6171 22.2454 75.6634 22.1329C75.7097 22.0204 75.7308 21.8991 75.7252 21.7776C75.7272 21.6575 75.7044 21.5382 75.6584 21.4272C75.6123 21.3162 75.5439 21.2159 75.4574 21.1325C75.2594 20.9546 74.9988 20.8627 74.7331 20.8768H72.615V22.6663H74.7331Z" fill="#4D4D4F"/>
    <path d="M85.8166 24.0723H83.948L83.4733 22.7698H80.1683L79.6875 24.0723H77.7885L80.7709 16.3728H82.822L85.8166 24.0723ZM83.0229 21.3273L81.8056 18.0101L80.5882 21.3273H83.0229Z" fill="#4D4D4F"/>
    <path d="M34.9395 32.3803V29.1423H36.5037C36.6881 29.1391 36.871 29.1765 37.0393 29.2518C37.1875 29.3248 37.3151 29.4336 37.4106 29.5683C37.4978 29.7012 37.5443 29.8567 37.5443 30.0157C37.5443 30.1746 37.4978 30.3301 37.4106 30.463C37.3138 30.6022 37.1784 30.7101 37.0211 30.7735C36.8301 30.8593 36.6216 30.8989 36.4125 30.8891H35.3716V30.6335H36.5585C36.8467 30.6168 37.1315 30.7031 37.362 30.8769C37.4553 30.9484 37.5308 31.0406 37.5826 31.1462C37.6343 31.2518 37.6609 31.368 37.6602 31.4856C37.6626 31.6459 37.6158 31.803 37.5263 31.936C37.4375 32.073 37.3106 32.1809 37.1611 32.2464C36.9965 32.3273 36.8148 32.3669 36.6316 32.362L34.9395 32.3803ZM36.4855 30.5544C36.6389 30.5604 36.7889 30.5082 36.9055 30.4082C36.9583 30.3648 37.0006 30.3099 37.0291 30.2477C37.0576 30.1855 37.0715 30.1176 37.0698 30.0492C37.0705 29.9818 37.0562 29.9151 37.0278 29.854C36.9993 29.7929 36.9575 29.7389 36.9055 29.6961C36.788 29.5984 36.6381 29.5484 36.4855 29.5562H35.396V30.5544H36.4855ZM36.6377 31.9603C36.7882 31.9665 36.9357 31.9166 37.0515 31.8203C37.1044 31.7769 37.1467 31.722 37.1752 31.6598C37.2036 31.5975 37.2176 31.5297 37.2159 31.4612C37.2166 31.3939 37.2023 31.3272 37.1738 31.2661C37.1454 31.205 37.1036 31.151 37.0515 31.1082C36.9365 31.0097 36.789 30.9577 36.6377 30.9621H35.4203V31.9482L36.6377 31.9603Z" fill="#4D4D4F"/>
    <path d="M38.2261 30.7615C38.222 30.4604 38.2999 30.1637 38.4513 29.9034C38.5963 29.6498 38.8065 29.4397 39.06 29.2947C39.3239 29.1471 39.6219 29.0715 39.9243 29.0756C40.2571 29.071 40.5837 29.1663 40.8616 29.3495C41.133 29.5293 41.3448 29.7856 41.4703 30.086L41.032 30.2381C40.9372 30.0246 40.783 29.8429 40.5877 29.7147C40.3894 29.5891 40.159 29.5236 39.9243 29.526C39.7098 29.521 39.4981 29.5752 39.3124 29.6825C39.1267 29.7899 38.9741 29.9463 38.8713 30.1347C38.768 30.3209 38.7135 30.5303 38.7131 30.7433C38.7143 30.9562 38.7687 31.1654 38.8713 31.352C38.9763 31.5356 39.1274 31.6888 39.3096 31.7963C39.4937 31.9055 39.7041 31.9623 39.9182 31.9606C40.1535 31.9612 40.384 31.8935 40.5816 31.7658C40.7769 31.6376 40.9311 31.4559 41.0259 31.2424L41.4642 31.3946C41.3388 31.6966 41.1271 31.9549 40.8555 32.1371C40.5758 32.3157 40.2501 32.4088 39.9182 32.4049C39.6159 32.409 39.3178 32.3334 39.0539 32.1858C38.7987 32.0431 38.588 31.8324 38.4452 31.5772C38.2929 31.3172 38.215 31.0202 38.22 30.7189" fill="#4D4D4F"/>
    <path d="M42.3648 30.9076V30.512H44.9212L44.8055 30.6642C44.8033 30.4498 44.7445 30.2398 44.6351 30.0555C44.5302 29.8822 44.3838 29.7379 44.209 29.6355C44.0255 29.5243 43.815 29.4655 43.6004 29.4655C43.3858 29.4655 43.1753 29.5243 42.9917 29.6355C42.8099 29.7442 42.6606 29.8997 42.5596 30.0859C42.4557 30.2818 42.4013 30.5002 42.4013 30.722C42.4013 30.9437 42.4557 31.1621 42.5596 31.358C42.6654 31.5447 42.8187 31.7001 43.0039 31.8084C43.1874 31.9198 43.3979 31.9787 43.6125 31.9788C43.8493 31.9824 44.082 31.9168 44.2821 31.7901C44.4788 31.6699 44.6355 31.4941 44.7325 31.285L45.1403 31.4615C45.008 31.7447 44.7966 31.9836 44.5316 32.1493C44.2544 32.322 43.9331 32.4108 43.6065 32.4049C43.3042 32.4081 43.0064 32.3326 42.7422 32.1858C42.4883 32.0413 42.278 31.831 42.1335 31.5771C41.9812 31.3171 41.9033 31.0202 41.9083 30.7189C41.905 30.4186 41.9806 30.1227 42.1274 29.8607C42.2764 29.6102 42.4856 29.401 42.7361 29.2521C42.9958 29.1052 43.2898 29.0296 43.5882 29.033C43.8997 29.0275 44.2061 29.112 44.4708 29.2764C44.7332 29.4318 44.9447 29.6602 45.0794 29.9338C45.22 30.2229 45.2789 30.5448 45.2498 30.865L42.3648 30.9076Z" fill="#4D4D4F"/>
    <path d="M47.9037 32.3805V29.1425H49.474C49.6564 29.1398 49.8371 29.1772 50.0035 29.252C50.1539 29.3216 50.2823 29.4311 50.3748 29.5685C50.462 29.7014 50.5084 29.8569 50.5084 30.0159C50.5084 30.1748 50.462 30.3303 50.3748 30.4632C50.2804 30.6023 50.147 30.7103 49.9914 30.7737C49.8 30.8584 49.5918 30.898 49.3827 30.8893H48.348V30.6337H49.5288C49.819 30.6155 50.1062 30.7019 50.3383 30.8771C50.4299 30.9499 50.5037 31.0424 50.5543 31.1479C50.6049 31.2533 50.631 31.3688 50.6304 31.4858C50.6321 31.6451 50.5877 31.8015 50.5026 31.9362C50.4109 32.0705 50.2848 32.1777 50.1374 32.2466C49.9724 32.3261 49.791 32.3657 49.6079 32.3622L47.9037 32.3805ZM49.4557 30.5545C49.6092 30.5606 49.7592 30.5084 49.8757 30.4084C49.9254 30.3634 49.9651 30.3084 49.9922 30.2471C50.0194 30.1858 50.0334 30.1195 50.0334 30.0524C50.0334 29.9853 50.0194 29.919 49.9922 29.8577C49.9651 29.7964 49.9254 29.7414 49.8757 29.6963C49.7583 29.5986 49.6083 29.5486 49.4557 29.5563H48.3662V30.5545H49.4557ZM49.6079 31.9605C49.7584 31.9667 49.9059 31.9168 50.0218 31.8205C50.0747 31.7771 50.117 31.7222 50.1454 31.66C50.1739 31.5977 50.1878 31.5298 50.1861 31.4614C50.1869 31.394 50.1725 31.3274 50.1441 31.2663C50.1156 31.2052 50.0739 31.1512 50.0218 31.1084C49.9068 31.0099 49.7592 30.9579 49.6079 30.9623H48.3906V31.9484L49.6079 31.9605Z" fill="#4D4D4F"/>
    <path d="M51.373 32.3804V29.1423H51.8477V30.5422H52.5294L53.6493 29.1423H54.1789L52.8094 30.9013V30.5544L54.2823 32.3804H53.6919L52.5294 30.9805H51.8477V32.3804H51.373Z" fill="#4D4D4F"/>
    <path d="M54.5199 32.4169V31.9908H54.5746C54.7037 31.9958 54.8319 31.9664 54.9459 31.9056C55.0546 31.8178 55.1299 31.6953 55.1589 31.5587C55.2159 31.2969 55.2404 31.0291 55.232 30.7613V29.1423H57.8127V32.3804H57.3318V29.5745H55.6946V30.7613C55.7041 31.0855 55.6673 31.4093 55.585 31.723C55.5279 31.9347 55.4015 32.1212 55.2259 32.2525C55.0232 32.3707 54.7907 32.4278 54.5564 32.4169H54.5199Z" fill="#4D4D4F"/>
    <path d="M58.6344 32.3806V29.1425H59.1153V30.5424H60.0648V30.9746H59.1153V32.3806H58.6344ZM59.7543 30.7615C59.7511 30.462 59.8244 30.1666 59.9673 29.9033C60.1135 29.6507 60.3234 29.4408 60.576 29.2947C60.8292 29.1479 61.1173 29.0722 61.4099 29.0756C61.6991 29.0719 61.9839 29.147 62.2337 29.2929C62.4835 29.4387 62.6889 29.6497 62.828 29.9033C62.9687 30.1675 63.0423 30.4622 63.0423 30.7615C63.0423 31.0608 62.9687 31.3556 62.828 31.6197C62.6869 31.8761 62.4758 32.0872 62.2194 32.2284C62.0317 32.3389 61.8239 32.4108 61.608 32.44C61.3922 32.4692 61.1728 32.4551 60.9625 32.3984C60.7522 32.3417 60.5553 32.2437 60.3834 32.11C60.2115 31.9763 60.068 31.8096 59.9613 31.6197C59.8184 31.3565 59.745 31.0611 59.7482 30.7615H59.7543ZM60.223 30.7615C60.2229 30.9731 60.273 31.1817 60.3691 31.3702C60.4676 31.5526 60.6125 31.7058 60.7891 31.8145C60.965 31.9221 61.1672 31.979 61.3734 31.979C61.5796 31.979 61.7817 31.9221 61.9577 31.8145C62.1342 31.7058 62.2791 31.5526 62.3776 31.3702C62.4784 31.1832 62.5307 30.9739 62.5298 30.7615C62.5312 30.549 62.4789 30.3397 62.3776 30.1529C62.2786 29.9692 62.1339 29.8141 61.9577 29.7025C61.7804 29.5987 61.5788 29.544 61.3734 29.544C61.168 29.544 60.9663 29.5987 60.7891 29.7025C60.6128 29.8141 60.4682 29.9692 60.3691 30.1529C60.2723 30.3411 60.2222 30.5499 60.223 30.7615Z" fill="#4D4D4F"/>
    <path d="M65.9383 31.1326L65.4148 31.2178C65.2419 31.2469 65.0668 31.2611 64.8914 31.2604C64.5123 31.2992 64.133 31.1902 63.8323 30.9561C63.7222 30.8326 63.6384 30.6879 63.5861 30.531C63.5338 30.374 63.514 30.208 63.528 30.0431V29.1423H64.0088V30.0431C64.0045 30.1917 64.0336 30.3394 64.0941 30.4753C64.1507 30.5936 64.2511 30.6853 64.374 30.7309C64.5545 30.7999 64.7471 30.831 64.9401 30.8222C65.243 30.8165 65.5446 30.7818 65.8409 30.7187V29.1423H66.3217V32.3804H65.8409V30.9318L65.9383 31.1326Z" fill="#4D4D4F"/>
    <path d="M67.4414 30.9076V30.512H70.0099L69.8943 30.6642C69.8902 30.4493 69.8293 30.2393 69.7178 30.0555C69.6144 29.8811 69.4676 29.7364 69.2917 29.6356C69.1076 29.527 68.8967 29.4722 68.6831 29.4773C68.4717 29.4796 68.2645 29.537 68.082 29.6437C67.8995 29.7505 67.748 29.9029 67.6423 30.086C67.5408 30.273 67.4865 30.4819 67.484 30.6946C67.4844 30.9084 67.5411 31.1183 67.6484 31.3033C67.7501 31.491 67.9017 31.6469 68.0866 31.7537C68.2847 31.871 68.5107 31.9328 68.7409 31.9328C68.9711 31.9328 69.1971 31.871 69.3952 31.7537C69.5893 31.6606 69.7552 31.5178 69.876 31.3398L70.2838 31.5163C70.1467 31.8062 69.928 32.0499 69.6545 32.2175C69.381 32.385 69.0646 32.4692 68.7439 32.4597C68.4417 32.463 68.1438 32.3874 67.8796 32.2406C67.627 32.0944 67.4171 31.8846 67.271 31.6319C67.1271 31.3687 67.0518 31.0737 67.0518 30.7737C67.0518 30.4738 67.1271 30.1787 67.271 29.9155C67.4164 29.6623 67.6265 29.4523 67.8796 29.3069C68.1371 29.1599 68.4292 29.0843 68.7257 29.0878C69.0373 29.0813 69.344 29.1659 69.6082 29.3312C69.8706 29.4866 70.0821 29.715 70.2169 29.9886C70.3595 30.2771 70.4205 30.5991 70.3934 30.9198L67.4414 30.9076Z" fill="#4D4D4F"/>
    <path d="M71.051 32.3804V29.1423H71.5318V30.5422H73.5586V29.1423H74.0334V32.3804H73.5586V30.9805H71.5318V32.3804H71.051Z" fill="#4D4D4F"/>
    <path d="M74.7455 30.7615C74.7414 30.4604 74.8192 30.1637 74.9707 29.9034C75.1156 29.6498 75.3258 29.4397 75.5793 29.2947C75.8432 29.1471 76.1413 29.0715 76.4436 29.0756C76.7458 29.0729 77.0435 29.1484 77.3079 29.2947C77.5644 29.4435 77.7767 29.6576 77.9232 29.9154C78.0697 30.1731 78.1451 30.4651 78.1418 30.7615C78.1468 31.0628 78.0689 31.3598 77.9166 31.6198C77.7728 31.8742 77.5624 32.0847 77.3079 32.2284C77.0435 32.3747 76.7458 32.4502 76.4436 32.4475C76.1413 32.4516 75.8432 32.3761 75.5793 32.2284C75.3241 32.0857 75.1134 31.875 74.9707 31.6198C74.8183 31.3598 74.7404 31.0628 74.7455 30.7615ZM75.2385 30.7615C75.2397 30.9744 75.2941 31.1837 75.3967 31.3702C75.5003 31.5549 75.6517 31.7084 75.8349 31.8145C76.0188 31.9243 76.2295 31.9812 76.4436 31.9789C76.6571 31.9786 76.8667 31.9223 77.0515 31.8155C77.2364 31.7086 77.3899 31.5551 77.4966 31.3702C77.5973 31.1832 77.6497 30.974 77.6488 30.7615C77.6502 30.5491 77.5978 30.3397 77.4966 30.1529C77.3925 29.967 77.2413 29.8117 77.0583 29.7025C76.8728 29.5973 76.6629 29.5428 76.4497 29.5442C76.2365 29.5428 76.0266 29.5973 75.841 29.7025C75.6581 29.8117 75.507 29.967 75.4028 30.1529C75.2995 30.3391 75.245 30.5485 75.2446 30.7615" fill="#4D4D4F"/>
    <path d="M7.43847 3.20774L4.03662 4.51904L7.77788 14.2248L11.1797 12.9135L7.43847 3.20774Z" fill="#F37021"/>
    <path d="M11.2627 15.2834L1.75552 11.0654L0.276489 14.4009L9.78367 18.6188L10.3497 17.3528L11.2627 15.2834Z" fill="#F37021"/>
    <path d="M12.9791 16.9318L3.27328 20.6731L4.58459 24.0749L14.2904 20.3337L12.9791 16.9318Z" fill="#B2D235"/>
    <path d="M18.7003 18.2962L17.6535 17.8336L15.3649 16.8171L11.1469 26.3304L14.4824 27.8094L18.0126 19.8361L18.7003 18.2962Z" fill="#B2D235"/>
    <path d="M20.003 10.1098L18.3779 9.3855L17.8362 10.6089L16.8989 12.7148L26.4121 16.9328L27.8851 13.6035L20.003 10.1098Z" fill="#F37021"/>
    <path d="M20.4061 13.7408L17.0045 15.0527L20.7474 24.7579L24.1491 23.446L20.4061 13.7408Z" fill="#F37021"/>
    <path d="M22.5827 2.4897L12.909 6.23438L14.2215 9.625L23.8952 5.88032L22.5827 2.4897Z" fill="#B2D235"/>
    <path d="M17.0146 1.67385L12.7967 11.181L10.0455 9.95764L9.72296 9.12987L13.6853 0.194824L17.0146 1.67385Z" fill="#B2D235"/>
</svg>
