<svg xmlns="http://www.w3.org/2000/svg" display="none">
    <symbol id="user" viewBox="0 0 26 29">
        <path d="M20.0968 6.90476C20.0968 10.7182 16.9194 13.8095 13 13.8095C9.08055 13.8095 5.90321 10.7182 5.90321 6.90476C5.90321 3.09137 9.08055 0 13 0C16.9194 0 20.0968 3.09137 20.0968 6.90476Z"/>
        <path d="M13 15.1905C7.62706 15.1905 2.95141 18.0951 0.541385 22.3785C-1.34065 25.7235 1.98376 29 5.90321 29H20.0968C24.0162 29 27.3407 25.7235 25.4586 22.3785C23.0486 18.0951 18.3729 15.1905 13 15.1905Z"/>
    </symbol>

    <symbol id="telegram" viewBox="0 0 50 50">
        <path d="M25 8.61347e-08C20.0555 8.61347e-08 15.222 1.46622 11.1108 4.21326C6.99953 6.96029 3.79521 10.8648 1.90302 15.4329C0.0108321 20.0011 -0.484251 25.0277 0.480379 29.8772C1.44501 34.7268 3.82603 39.1813 7.32234 42.6777C10.8187 46.174 15.2732 48.555 20.1228 49.5196C24.9723 50.4842 29.9989 49.9892 34.5671 48.097C39.1352 46.2048 43.0397 43.0005 45.7867 38.8892C48.5338 34.778 50 29.9445 50 25C50.0003 21.7169 49.3538 18.4658 48.0975 15.4326C46.8413 12.3993 44.9998 9.64324 42.6783 7.32172C40.3568 5.0002 37.6007 3.15873 34.5674 1.90246C31.5342 0.646186 28.2831 -0.000272447 25 8.61347e-08ZM32.9488 37.8812C32.8552 38.1145 32.7128 38.3251 32.5312 38.4989C32.3496 38.6727 32.1329 38.8057 31.8957 38.8889C31.6584 38.9721 31.4062 39.0037 31.1558 38.9814C30.9054 38.9592 30.6626 38.8836 30.4438 38.7599L23.6571 33.4865L19.3013 37.505C19.2002 37.5797 19.082 37.6277 18.9575 37.6447C18.833 37.6617 18.7062 37.6472 18.5888 37.6023L19.4238 30.1312L19.4505 30.1524L19.4676 30.0049C19.4676 30.0049 31.6801 18.8861 32.1776 18.4124C32.6813 17.9399 32.5151 17.8374 32.5151 17.8374C32.5438 17.2611 31.6113 17.8374 31.6113 17.8374L15.43 28.2475L8.69129 25.9525C8.69129 25.9525 7.65628 25.5812 7.55878 24.765C7.45628 23.955 8.72501 23.515 8.72501 23.515L35.5175 12.8712C35.5175 12.8712 37.72 11.8899 37.72 13.515L32.9488 37.8812Z"/>
    </symbol>

    <symbol id="arrow-bottom" viewBox="0 0 19 11">
        <path d="M18.25 1.25L9.625 9.5L1 1.25" stroke-width="2"/>
    </symbol>

    <symbol id="arrow-right" viewBox="0 0 12 18">
        <path d="M2 2L9 9L2 16" stroke-width="3"/>
    </symbol>


    <symbol id="arrow-left" viewBox="0 0 14 25">
        <path d="M13 24L2 12.5L13 0.999999" stroke-width="2"/>
    </symbol>

</svg>