<svg width="66" height="66" viewBox="0 0 66 66" fill="none" xmlns="http://www.w3.org/2000/svg">
    <path d="M65.0332 33.6305H46.0324V30.9395H52.1426C53.741 30.9395 55.043 29.6266 55.043 28.0146V15.9638C55.043 14.3518 53.741 13.0388 52.1426 13.0388H34.1215C32.523 13.0388 31.2211 14.3518 31.2211 15.9638V21.1767L26.7996 19.8117C26.1422 19.6167 25.691 19.0057 25.691 18.3037V17.7187C27.0188 16.5098 27.7664 14.7808 27.7664 12.9738V10.8678C27.7664 10.8418 27.7664 10.8288 27.7664 10.8028L28.5785 7.31889C28.9266 5.87591 28.643 4.35493 27.8309 3.11995C27.0187 1.88497 25.7297 1.03998 24.273 0.792988C23.6156 0.688989 22.9711 0.558991 22.3266 0.428993L21.8883 0.350995C20.9859 0.168997 20.2641 0.0129998 19.2844 0H19.1812C17.5699 0 16.0488 0.740989 15.0563 2.01497C14.0508 3.30195 13.677 4.99192 14.0508 6.5909L15.0434 10.8158C15.0434 10.8288 15.0434 10.8548 15.0434 10.8678V12.9868C15.0434 14.7548 15.7652 16.4578 17.0543 17.6667V18.3297C17.0543 19.0187 16.6031 19.6297 15.9457 19.8377L13.2645 20.6567L13.2387 20.6697L10.7766 21.4237C8.23711 22.1907 6.49687 24.5566 6.50977 27.2216V33.6305H0.966797C0.438281 33.6305 0 34.0725 0 34.6055V40.4554C0 40.9884 0.438281 41.4304 0.966797 41.4304H4.83398V65.025C4.83398 65.558 5.27227 66 5.80078 66C6.3293 66 6.76758 65.558 6.76758 65.025V41.4304H59.2324V65.025C59.2324 65.558 59.6707 66 60.1992 66C60.7277 66 61.166 65.558 61.166 65.025V41.4304H65.0332C65.5617 41.4304 66 40.9884 66 40.4554V34.6055C66 34.0725 65.5617 33.6305 65.0332 33.6305ZM33.1547 15.9768C33.1547 15.4438 33.593 15.0018 34.1215 15.0018H52.1555C52.684 15.0018 53.1223 15.4438 53.1223 15.9768V28.0276C53.1223 28.5606 52.684 29.0026 52.1555 29.0026H46.0453V24.8686C46.0453 24.3356 45.607 23.8936 45.0785 23.8936H41.2113C40.6828 23.8936 40.2445 24.3356 40.2445 24.8686V29.0026H34.1344C33.6059 29.0026 33.1676 28.5606 33.1676 28.0276V15.9768H33.1547ZM44.0988 25.8306V33.6305H42.1652V25.8306H44.0988ZM40.2316 30.9395V33.6305H36.2871V30.9395H40.2316ZM31.2211 23.2176V28.0146C31.2211 29.6266 32.523 30.9395 34.1215 30.9395H34.3535V33.6305H30.0996V30.1335C30.0996 29.6006 29.6613 29.1586 29.1328 29.1586C28.6043 29.1586 28.166 29.6006 28.166 30.1335V33.6305H22.3652V24.9206L23.6543 26.3896C24.0023 26.7926 24.6082 26.8316 25.0078 26.4936L29.4422 22.6717L31.2211 23.2176ZM21.3598 21.2287L18.7301 19.6427C18.8203 19.4087 18.8848 19.1617 18.9363 18.9147C20.4961 19.5777 22.2492 19.5907 23.809 18.9407C23.8477 19.1747 23.9121 19.4087 24.0023 19.6297L21.3598 21.2287ZM26.2324 21.6837L27.2508 21.9957L24.4793 24.3746L22.8938 22.5677L25.2012 21.1637C25.5105 21.3977 25.8586 21.5667 26.2324 21.6837ZM16.268 7.60488L15.9328 6.14891C15.6879 5.12192 15.9328 4.04294 16.5902 3.22395C17.2219 2.41796 18.1887 1.94997 19.207 1.94997H19.2844C20.0836 1.96297 20.6508 2.07997 21.5145 2.26197L21.9527 2.35296C22.6102 2.48296 23.2934 2.61296 23.9637 2.72996C25.807 3.04195 27.0574 4.79693 26.748 6.6559C26.7352 6.7339 26.7223 6.7989 26.7094 6.8769L26.5418 7.57889C25.9488 7.14989 25.3172 7.08489 24.8016 7.03289C24.3246 6.98089 23.9508 6.9419 23.5641 6.6559C21.8109 5.34292 20.3672 6.10991 19.2973 6.91589C19.0137 7.13689 18.7043 7.14989 18.1758 7.14989C17.6473 7.14989 16.9125 7.16289 16.268 7.60488ZM16.9641 12.9998V10.8418C16.9641 10.8158 16.9641 10.8028 16.9641 10.7768C16.9125 10.0358 17.0156 9.50286 17.2734 9.26886C17.4281 9.12586 17.6602 9.11286 18.1629 9.11286C18.7816 9.11286 19.6324 9.11286 20.4445 8.48887C20.973 8.08588 21.334 7.91688 21.6434 7.91688C21.9012 7.91688 22.1332 8.03388 22.4039 8.24187C23.216 8.85287 24.0281 8.93086 24.6082 8.99586C25.1238 9.04786 25.3172 9.08686 25.4977 9.25586C25.8328 9.59385 25.8715 10.2828 25.8457 10.8028C25.8457 10.8288 25.8457 10.8418 25.8457 10.8548V13.0128C25.8457 15.4828 23.8605 17.4847 21.4113 17.4847C18.9621 17.4587 16.977 15.4698 16.9641 12.9998ZM16.5 21.7097C16.8738 21.5927 17.2219 21.4237 17.5312 21.1897L19.8129 22.5677L18.2145 24.3876L15.4688 22.0217L16.5 21.7097ZM8.44336 27.2346C8.44336 25.4146 9.61641 23.8156 11.3438 23.2956L13.2902 22.6977L17.6859 26.4936C18.0855 26.8446 18.6914 26.7926 19.0395 26.4026L20.4316 24.8166V33.6305H14.6309V30.1335C14.6309 29.6006 14.1926 29.1586 13.6641 29.1586C13.1355 29.1586 12.6973 29.6006 12.6973 30.1335V33.6305H8.44336V27.2346ZM64.0664 39.4804H1.93359V35.5805H64.0664V39.4804Z" fill="white"/>
</svg>
