<svg width="64" height="50" viewBox="0 0 64 50" fill="none" xmlns="http://www.w3.org/2000/svg">
    <path d="M61 0H3C2.20435 0 1.44129 0.316071 0.87868 0.87868C0.31607 1.44129 0 2.20435 0 3V37C0 37.7957 0.31607 38.5587 0.87868 39.1213C1.44129 39.6839 2.20435 40 3 40H3.5V42C3.5 42.7957 3.81607 43.5587 4.37868 44.1213C4.94129 44.6839 5.70435 45 6.5 45H7V47C7 47.7957 7.31607 48.5587 7.87868 49.1213C8.44129 49.6839 9.20435 50 10 50H54C54.7957 50 55.5587 49.6839 56.1213 49.1213C56.6839 48.5587 57 47.7957 57 47V45H57.5C58.2957 45 59.0587 44.6839 59.6213 44.1213C60.1839 43.5587 60.5 42.7957 60.5 42V40H61C61.7957 40 62.5587 39.6839 63.1213 39.1213C63.6839 38.5587 64 37.7957 64 37V3C64 2.20435 63.6839 1.44129 63.1213 0.87868C62.5587 0.316071 61.7957 0 61 0ZM55 47C55 47.2652 54.8946 47.5196 54.7071 47.7071C54.5196 47.8946 54.2652 48 54 48H10C9.73478 48 9.48043 47.8946 9.29289 47.7071C9.10536 47.5196 9 47.2652 9 47V45H55V47ZM58.5 42C58.5 42.2652 58.3946 42.5196 58.2071 42.7071C58.0196 42.8946 57.7652 43 57.5 43H6.5C6.23478 43 5.98043 42.8946 5.79289 42.7071C5.60536 42.5196 5.5 42.2652 5.5 42V40H58.5V42ZM62 37C62 37.2652 61.8946 37.5196 61.7071 37.7071C61.5196 37.8946 61.2652 38 61 38H3C2.73478 38 2.48043 37.8946 2.29289 37.7071C2.10536 37.5196 2 37.2652 2 37V3C2 2.73478 2.10536 2.48043 2.29289 2.29289C2.48043 2.10536 2.73478 2 3 2H61C61.2652 2 61.5196 2.10536 61.7071 2.29289C61.8946 2.48043 62 2.73478 62 3V37Z"
          fill="#35AB52"/>
    <path d="M56 14C54.4087 14 52.8826 13.3679 51.7574 12.2426C50.6321 11.1174 50 9.5913 50 8C50 7.73478 49.8946 7.48043 49.7071 7.29289C49.5196 7.10536 49.2652 7 49 7H15C14.7348 7 14.4804 7.10536 14.2929 7.29289C14.1054 7.48043 14 7.73478 14 8C14 9.5913 13.3679 11.1174 12.2426 12.2426C11.1174 13.3679 9.5913 14 8 14C7.73478 14 7.48043 14.1054 7.29289 14.2929C7.10536 14.4804 7 14.7348 7 15V25C7 25.2652 7.10536 25.5196 7.29289 25.7071C7.48043 25.8946 7.73478 26 8 26C9.5913 26 11.1174 26.6321 12.2426 27.7574C13.3679 28.8826 14 30.4087 14 32C14 32.2652 14.1054 32.5196 14.2929 32.7071C14.4804 32.8946 14.7348 33 15 33H49C49.2652 33 49.5196 32.8946 49.7071 32.7071C49.8946 32.5196 50 32.2652 50 32C50 30.4087 50.6321 28.8826 51.7574 27.7574C52.8826 26.6321 54.4087 26 56 26C56.2652 26 56.5196 25.8946 56.7071 25.7071C56.8946 25.5196 57 25.2652 57 25V15C57 14.7348 56.8946 14.4804 56.7071 14.2929C56.5196 14.1054 56.2652 14 56 14ZM55 24.06C53.2367 24.2816 51.5974 25.084 50.3407 26.3407C49.084 27.5974 48.2816 29.2367 48.06 31H15.94C15.7184 29.2367 14.916 27.5974 13.6593 26.3407C12.4026 25.084 10.7633 24.2816 9 24.06V15.94C10.7633 15.7184 12.4026 14.916 13.6593 13.6593C14.916 12.4026 15.7184 10.7633 15.94 9H48.06C48.2816 10.7633 49.084 12.4026 50.3407 13.6593C51.5974 14.916 53.2367 15.7184 55 15.94V24.06Z"
          fill="#35AB52"/>
    <path d="M32 11C30.22 11 28.4799 11.5278 26.9999 12.5168C25.5198 13.5057 24.3663 14.9113 23.6851 16.5558C23.0039 18.2004 22.8257 20.01 23.1729 21.7558C23.5202 23.5016 24.3774 25.1053 25.636 26.364C26.8947 27.6226 28.4984 28.4798 30.2442 28.8271C31.99 29.1743 33.7996 28.9961 35.4442 28.3149C37.0887 27.6337 38.4943 26.4802 39.4832 25.0001C40.4722 23.5201 41 21.78 41 20C41 17.6131 40.0518 15.3239 38.364 13.636C36.6761 11.9482 34.387 11 32 11ZM32 27C30.6155 27 29.2622 26.5895 28.111 25.8203C26.9599 25.0511 26.0627 23.9579 25.5328 22.6788C25.003 21.3997 24.8644 19.9922 25.1345 18.6344C25.4046 17.2765 26.0713 16.0292 27.0503 15.0503C28.0292 14.0713 29.2765 13.4046 30.6344 13.1345C31.9922 12.8644 33.3997 13.003 34.6788 13.5328C35.9579 14.0627 37.0511 14.9599 37.8203 16.111C38.5895 17.2622 39 18.6155 39 20C39 21.8565 38.2625 23.637 36.9498 24.9497C35.637 26.2625 33.8565 27 32 27Z"
          fill="#35AB52"/>
</svg>
