<svg width="66" height="66" viewBox="0 0 66 66" fill="none" xmlns="http://www.w3.org/2000/svg">
    <path d="M7.66992 48.3398H11.666C12.1616 48.3393 12.6367 48.1422 12.9871 47.7918C13.3375 47.4413 13.5346 46.9663 13.5352 46.4707V42.4746C13.5346 41.9791 13.3375 41.504 12.9871 41.1536C12.6367 40.8032 12.1616 40.606 11.666 40.6055H7.66992C7.17437 40.606 6.69928 40.8032 6.34887 41.1536C5.99846 41.504 5.80135 41.9791 5.80078 42.4746V46.4707C5.80135 46.9663 5.99846 47.4413 6.34887 47.7918C6.69928 48.1422 7.17437 48.3393 7.66992 48.3398ZM7.73438 42.5391H11.6016V46.4062H7.73438V42.5391ZM36.3621 41.6428C38.9258 41.641 41.4096 40.7505 43.3902 39.1228C45.3709 37.4952 46.726 35.2311 47.2245 32.7164C47.7231 30.2017 47.3344 27.5919 46.1245 25.3316C44.9146 23.0714 42.9585 21.3006 40.5894 20.3209C38.2204 19.3412 35.5849 19.2132 33.132 19.9588C30.6791 20.7043 28.5607 22.2773 27.1375 24.4096C25.7143 26.542 25.0745 29.1018 25.3271 31.653C25.5797 34.2042 26.709 36.5889 28.5226 38.4008C29.5514 39.4309 30.7736 40.2476 32.1189 40.8039C33.4643 41.3603 34.9063 41.6454 36.3621 41.6428ZM36.2534 29.9707H27.2347C27.3207 28.6132 27.7086 27.2921 28.3701 26.1035H36.2534C36.5098 26.1035 36.7557 26.0017 36.937 25.8203C37.1183 25.639 37.2202 25.3931 37.2202 25.1367C37.2202 24.8803 37.1183 24.6344 36.937 24.4531C36.7557 24.2718 36.5098 24.1699 36.2534 24.1699H29.8132C29.8392 24.1432 29.8636 24.1155 29.89 24.0891C31.607 22.3746 33.9344 21.412 36.3608 21.4129C38.7872 21.4138 41.114 22.378 42.8297 24.0938C44.5455 25.8095 45.5097 28.1362 45.5106 30.5627C45.5115 32.9891 44.5489 35.3165 42.8344 37.0335H42.8343C41.6359 38.2332 40.1276 39.0762 38.4779 39.4684C36.8282 39.8605 35.1019 39.7865 33.4919 39.2544C31.8818 38.7224 30.4513 37.7533 29.3601 36.4554C28.2689 35.1575 27.5599 33.5818 27.3122 31.9043H36.2534C36.5098 31.9043 36.7557 31.8024 36.937 31.6211C37.1183 31.4398 37.2202 31.1939 37.2202 30.9375C37.2202 30.6811 37.1183 30.4352 36.937 30.2539C36.7557 30.0726 36.5098 29.9707 36.2534 29.9707ZM14.7761 6.04915C14.5849 6.04915 14.398 6.10586 14.239 6.21209C14.08 6.31832 13.9561 6.46931 13.8829 6.64597C13.8098 6.82263 13.7906 7.01702 13.8279 7.20456C13.8652 7.3921 13.9573 7.56437 14.0925 7.69958C14.2277 7.83479 14.4 7.92687 14.5875 7.96417C14.7751 8.00148 14.9695 7.98233 15.1461 7.90915C15.3228 7.83598 15.4738 7.71206 15.58 7.55307C15.6862 7.39409 15.7429 7.20717 15.7429 7.01595C15.7429 6.75954 15.6411 6.51363 15.4598 6.33232C15.2785 6.15102 15.0325 6.04916 14.7761 6.04915ZM17.6765 32.8711C17.6765 32.9981 17.7015 33.1238 17.7501 33.2411C17.7987 33.3584 17.8699 33.465 17.9597 33.5547C18.0495 33.6445 18.156 33.7157 18.2733 33.7643C18.3906 33.8129 18.5164 33.8379 18.6433 33.8379H21.8074C22.3369 36.1809 23.4239 38.3615 24.9761 40.1948C26.5282 42.028 28.4998 43.4597 30.7233 44.3684C32.9469 45.2771 35.3569 45.6359 37.7488 45.4144C40.1406 45.1928 42.4437 44.3976 44.4626 43.096L45.8429 44.4763C45.6111 44.7438 45.4891 45.0892 45.5015 45.4429C45.5139 45.7967 45.6596 46.1326 45.9095 46.3833L54.5587 55.0324C54.9706 55.445 55.4597 55.7724 55.9982 55.9959C56.5366 56.2194 57.1139 56.3346 57.6969 56.3349C58.2799 56.3351 58.8572 56.2205 59.3959 55.9975C59.9346 55.7746 60.424 55.4476 60.8363 55.0354C61.2485 54.6231 61.5755 54.1337 61.7985 53.595C62.0214 53.0563 62.1361 52.479 62.1358 51.896C62.1355 51.313 62.0203 50.7357 61.7968 50.1973C61.5734 49.6588 61.2459 49.1696 60.8333 48.7578L52.1841 40.1086C51.9334 39.8588 51.5975 39.7131 51.2438 39.7007C50.8901 39.6884 50.5448 39.8103 50.2773 40.0419L48.897 38.6616C50.897 35.5665 51.6812 31.8409 51.0985 28.2022C50.5159 24.5634 48.6076 21.2689 45.7411 18.9531C42.8747 16.6372 39.2528 15.4637 35.5729 15.6586C31.8929 15.8535 28.4152 17.403 25.8094 20.0087C25.7125 20.1056 25.6172 20.2037 25.5237 20.3027H18.6433C18.3869 20.3027 18.141 20.4046 17.9597 20.5859C17.7784 20.7672 17.6765 21.0131 17.6765 21.2695C17.6765 21.5259 17.7784 21.7719 17.9597 21.9532C18.141 22.1345 18.3869 22.2363 18.6433 22.2363H23.9756C22.0684 25.0806 21.1966 28.4938 21.5063 31.9043H18.6433C18.5164 31.9043 18.3906 31.9293 18.2733 31.9779C18.156 32.0265 18.0495 32.0977 17.9597 32.1874C17.8699 32.2772 17.7987 32.3838 17.7501 32.5011C17.7015 32.6184 17.6765 32.7441 17.6765 32.8711ZM50.9561 42.0906L50.9574 42.0894L50.9586 42.0881L51.1938 41.8529L59.4659 50.1252C59.9347 50.5949 60.198 51.2315 60.198 51.8952C60.198 52.5588 59.9347 53.1954 59.4659 53.6652C59.2335 53.8976 58.9576 54.0821 58.6539 54.2079C58.3502 54.3337 58.0247 54.3985 57.696 54.3984C57.3673 54.3984 57.0418 54.3337 56.7381 54.2079C56.4344 54.082 56.1585 53.8976 55.9261 53.6652L47.6538 45.3929L50.9561 42.0906ZM48.9063 41.4057L47.2065 43.1055L46.0306 41.9296C46.3335 41.6716 46.6282 41.3998 46.9148 41.114C47.2009 40.8279 47.4728 40.5332 47.7304 40.2298L48.9063 41.4057ZM27.1767 21.376C28.9934 19.5593 31.308 18.3221 33.8278 17.8209C36.3476 17.3196 38.9595 17.5769 41.3332 18.56C43.7068 19.5432 45.7356 21.2082 47.163 23.3444C48.5903 25.4806 49.3522 27.9921 49.3522 30.5613C49.3523 33.1305 48.5904 35.642 47.1631 37.7782C45.7357 39.9144 43.7069 41.5794 41.3333 42.5626C38.9597 43.5458 36.3478 43.8031 33.828 43.3019C31.3081 42.8007 28.9935 41.5635 27.1768 39.7468C25.9657 38.5433 25.0046 37.1121 24.3487 35.5358C23.6929 33.9594 23.3552 32.2688 23.3552 30.5614C23.3552 28.8541 23.6928 27.1635 24.3487 25.5871C25.0045 24.0107 25.9656 22.5796 27.1767 21.376ZM61.166 0H4.83398C3.55237 0.00144185 2.32367 0.511198 1.41743 1.41743C0.511198 2.32367 0.00144185 3.55237 0 4.83398V61.166C0.00144219 62.4476 0.511199 63.6763 1.41743 64.5826C2.32367 65.4888 3.55237 65.9986 4.83398 66H61.166C62.4476 65.9986 63.6763 65.4888 64.5826 64.5826C65.4888 63.6763 65.9986 62.4476 66 61.166V4.83398C65.9986 3.55237 65.4888 2.32367 64.5826 1.41743C63.6763 0.511198 62.4476 0.00144185 61.166 0ZM64.0664 61.166C64.0655 61.935 63.7597 62.6722 63.2159 63.2159C62.6722 63.7597 61.935 64.0655 61.166 64.0664H4.83398C4.06502 64.0655 3.32781 63.7597 2.78407 63.2159C2.24034 62.6722 1.93448 61.935 1.93359 61.166V13.5352H64.0664V61.166ZM64.0664 11.6016H1.93359V4.83398C1.93448 4.06502 2.24034 3.32781 2.78407 2.78407C3.32781 2.24034 4.06502 1.93448 4.83398 1.93359H61.166C61.935 1.93448 62.6722 2.24034 63.2159 2.78407C63.7597 3.32781 64.0655 4.06502 64.0664 4.83398V11.6016ZM10.9089 6.04915C10.7177 6.04915 10.5308 6.10586 10.3718 6.21209C10.2128 6.31832 10.0889 6.46931 10.0157 6.64597C9.94256 6.82263 9.92342 7.01702 9.96072 7.20456C9.99803 7.3921 10.0901 7.56437 10.2253 7.69958C10.3605 7.83479 10.5328 7.92687 10.7203 7.96417C10.9079 8.00148 11.1023 7.98233 11.2789 7.90915C11.4556 7.83598 11.6066 7.71206 11.7128 7.55307C11.819 7.39409 11.8757 7.20717 11.8757 7.01595C11.8757 6.75954 11.7739 6.51363 11.5926 6.33232C11.4113 6.15102 11.1654 6.04916 10.9089 6.04915ZM7.66992 36.7383H11.666C12.1616 36.7377 12.6367 36.5406 12.9871 36.1902C13.3375 35.8398 13.5346 35.3647 13.5352 34.8691V30.873C13.5346 30.3775 13.3375 29.9024 12.9871 29.552C12.6367 29.2016 12.1616 29.0045 11.666 29.0039H7.66992C7.17437 29.0045 6.69928 29.2016 6.34887 29.552C5.99846 29.9024 5.80135 30.3775 5.80078 30.873V34.8691C5.80135 35.3647 5.99846 35.8398 6.34887 36.1902C6.69928 36.5406 7.17437 36.7377 7.66992 36.7383ZM7.73438 30.9375H11.6016V34.8047H7.73438V30.9375ZM7.66992 59.9414H11.666C12.1616 59.9408 12.6367 59.7437 12.9871 59.3933C13.3375 59.0429 13.5346 58.5678 13.5352 58.0723V54.0762C13.5346 53.5806 13.3375 53.1055 12.9871 52.7551C12.6367 52.4047 12.1616 52.2076 11.666 52.207H7.66992C7.17437 52.2076 6.69928 52.4047 6.34887 52.7551C5.99846 53.1055 5.80135 53.5806 5.80078 54.0762V58.0723C5.80135 58.5678 5.99846 59.0429 6.34887 59.3933C6.69928 59.7437 7.17437 59.9408 7.66992 59.9414ZM7.73438 54.1406H11.6016V58.0078H7.73438V54.1406ZM7.66992 25.1367H11.666C12.1616 25.1361 12.6367 24.939 12.9871 24.5886C13.3375 24.2382 13.5346 23.7631 13.5352 23.2676V19.2715C13.5346 18.7759 13.3375 18.3008 12.9871 17.9504C12.6367 17.6 12.1616 17.4029 11.666 17.4023H7.66992C7.17437 17.4029 6.69928 17.6 6.34887 17.9504C5.99846 18.3008 5.80135 18.7759 5.80078 19.2715V23.2676C5.80135 23.7631 5.99846 24.2382 6.34887 24.5886C6.69928 24.939 7.17437 25.1361 7.66992 25.1367ZM7.73438 19.3359H11.6016V23.2031H7.73438V19.3359ZM18.6433 57.041H51.498C51.7545 57.041 52.0004 56.9392 52.1817 56.7579C52.363 56.5765 52.4648 56.3306 52.4648 56.0742C52.4648 55.8178 52.363 55.5719 52.1817 55.3906C52.0004 55.2093 51.7545 55.1074 51.498 55.1074H18.6433C18.3869 55.1074 18.141 55.2093 17.9597 55.3906C17.7784 55.5719 17.6765 55.8178 17.6765 56.0742C17.6765 56.3306 17.7784 56.5765 17.9597 56.7579C18.141 56.9392 18.3869 57.041 18.6433 57.041ZM7.04176 6.04915C6.85055 6.04915 6.66363 6.10586 6.50464 6.21209C6.34565 6.31832 6.22173 6.46931 6.14856 6.64597C6.07538 6.82263 6.05624 7.01702 6.09354 7.20456C6.13085 7.3921 6.22292 7.56437 6.35813 7.69958C6.49334 7.83479 6.66561 7.92687 6.85315 7.96417C7.04069 8.00148 7.23508 7.98233 7.41174 7.90915C7.5884 7.83598 7.73939 7.71206 7.84562 7.55307C7.95186 7.39409 8.00856 7.20717 8.00856 7.01595C8.00856 6.75954 7.9067 6.51363 7.72539 6.33232C7.54408 6.15102 7.29817 6.04916 7.04176 6.04915ZM18.6433 45.4395H24.6518C24.9082 45.4395 25.1541 45.3376 25.3354 45.1563C25.5168 44.975 25.6186 44.7291 25.6186 44.4727C25.6186 44.2163 25.5168 43.9703 25.3354 43.789C25.1541 43.6077 24.9082 43.5059 24.6518 43.5059H18.6433C18.3869 43.5059 18.141 43.6077 17.9597 43.789C17.7784 43.9703 17.6765 44.2163 17.6765 44.4727C17.6765 44.7291 17.7784 44.975 17.9597 45.1563C18.141 45.3376 18.3869 45.4395 18.6433 45.4395Z" fill="#35AB52"/>
</svg>
