<svg width="55" height="56" viewBox="0 0 55 56" fill="none" xmlns="http://www.w3.org/2000/svg">
    <path d="M53.9819 22.75C53.6589 22.4243 53.2753 22.1659 52.853 21.9897C52.4307 21.8134 51.978 21.7226 51.5208 21.7226C51.0636 21.7226 50.6109 21.8134 50.1886 21.9897C49.7663 22.1659 49.3827 22.4243 49.0597 22.75L41.7261 30.1315V13.125C41.7211 13.0872 41.7135 13.0498 41.7035 13.013C41.699 12.9764 41.6921 12.9401 41.6826 12.9045C41.6487 12.7556 41.5761 12.6185 41.4722 12.5072L29.3016 0.25725C29.1917 0.152323 29.0561 0.0786458 28.9087 0.04375C28.8739 0.0343083 28.8384 0.0272917 28.8026 0.02275C28.7649 0.0124972 28.7266 0.00489548 28.6879 0H4.34665C3.19385 0 2.08826 0.460936 1.2731 1.28141C0.457949 2.10188 0 3.21468 0 4.375V51.625C0 52.7853 0.457949 53.8981 1.2731 54.7186C2.08826 55.5391 3.19385 56 4.34665 56H37.3812C37.952 56 38.5172 55.8868 39.0446 55.667C39.5719 55.4471 40.0511 55.1248 40.4547 54.7186C40.8583 54.3123 41.1785 53.83 41.3969 53.2992C41.6154 52.7684 41.7278 52.1995 41.7278 51.625V40.033L53.9784 27.7025C54.3019 27.3777 54.5587 26.9918 54.734 26.5671C54.9093 26.1423 54.9997 25.6869 55 25.227C55.0003 24.767 54.9106 24.3115 54.7359 23.8865C54.5612 23.4615 54.305 23.0753 53.9819 22.75ZM29.5572 2.98725L38.7599 12.25H32.1652C31.4735 12.25 30.8102 11.9734 30.3211 11.4812C29.832 10.9889 29.5572 10.3212 29.5572 9.625V2.98725ZM28.7174 12.25H7.82397C7.59341 12.25 7.37229 12.1578 7.20926 11.9937C7.04623 11.8296 6.95464 11.6071 6.95464 11.375V7.875C6.95464 7.64294 7.04623 7.42038 7.20926 7.25628C7.37229 7.09219 7.59341 7 7.82397 7H27.8185V9.625C27.824 10.5756 28.1398 11.4979 28.7174 12.25ZM39.9961 51.625C39.9961 52.3212 39.7213 52.9889 39.2322 53.4812C38.7432 53.9734 38.0798 54.25 37.3881 54.25H4.3536C3.66192 54.25 2.99857 53.9734 2.50948 53.4812C2.02038 52.9889 1.74561 52.3212 1.74561 51.625V4.375C1.74561 3.68002 2.01943 3.0134 2.50702 2.52132C2.99461 2.02923 3.65617 1.75185 4.34665 1.75H27.8185V5.25H7.82397C7.13228 5.25 6.46893 5.52656 5.97984 6.01884C5.49075 6.51113 5.21598 7.17881 5.21598 7.875V11.375C5.21598 12.0712 5.49075 12.7389 5.97984 13.2312C6.46893 13.7234 7.13228 14 7.82397 14H39.9892V31.8832L30.0075 41.93C29.9683 41.9774 29.9345 42.0291 29.9067 42.084C29.8893 42.112 29.8597 42.1278 29.8458 42.1575L27.3874 47.1065C27.3173 47.2555 27.2912 47.4216 27.3121 47.5851C27.3331 47.7486 27.4002 47.9025 27.5056 48.0287L26.4241 49.1278C26.3351 49.2073 26.2633 49.3045 26.2131 49.4131C26.1629 49.5218 26.1354 49.6397 26.1324 49.7595C26.1293 49.8793 26.1507 49.9985 26.1953 50.1096C26.2399 50.2207 26.3067 50.3214 26.3915 50.4055C26.4764 50.4896 26.5775 50.5552 26.6885 50.5983C26.7996 50.6415 26.9183 50.6612 27.0373 50.6562C27.1563 50.6513 27.2729 50.6218 27.3801 50.5696C27.4873 50.5174 27.5827 50.4436 27.6603 50.3527L28.7122 49.2817L28.7783 49.3482C28.9072 49.4781 29.0735 49.5639 29.2535 49.5934C29.4336 49.623 29.6183 49.5947 29.7815 49.5127L34.6984 47.0365C34.728 47.0225 34.7436 46.9928 34.7714 46.9753C34.826 46.9472 34.8773 46.9132 34.9244 46.8737L39.9892 41.7777L39.9961 51.625ZM30.8682 44.0265L32.8502 46.0215L29.5728 47.6717L29.3381 47.4337V47.4233H29.3277L29.2373 47.3322L30.8682 44.0265ZM34.3246 45.0187L31.847 42.5495L47.9331 26.3585L50.3916 28.833L34.3246 45.0187ZM52.7631 26.4618L51.6364 27.5957L49.1762 25.1195L50.3029 23.9855C50.4644 23.8229 50.6562 23.6939 50.8673 23.6059C51.0783 23.5179 51.3045 23.4727 51.533 23.4727C51.7614 23.4727 51.9877 23.5179 52.1987 23.6059C52.4098 23.6939 52.6016 23.8229 52.7631 23.9855C52.9246 24.1481 53.0528 24.3411 53.1402 24.5536C53.2276 24.766 53.2726 24.9937 53.2726 25.2236C53.2726 25.4536 53.2276 25.6813 53.1402 25.8937C53.0528 26.1061 52.9246 26.2992 52.7631 26.4618ZM14.7786 28H35.6425C35.8731 28 36.0942 27.9078 36.2572 27.7437C36.4202 27.5796 36.5118 27.3571 36.5118 27.125C36.5118 26.8929 36.4202 26.6704 36.2572 26.5063C36.0942 26.3422 35.8731 26.25 35.6425 26.25H14.7786C14.548 26.25 14.3269 26.3422 14.1639 26.5063C14.0009 26.6704 13.9093 26.8929 13.9093 27.125C13.9093 27.3571 14.0009 27.5796 14.1639 27.7437C14.3269 27.9078 14.548 28 14.7786 28ZM14.7786 22.75H35.6425C35.8731 22.75 36.0942 22.6578 36.2572 22.4937C36.4202 22.3296 36.5118 22.1071 36.5118 21.875C36.5118 21.6429 36.4202 21.4204 36.2572 21.2563C36.0942 21.0922 35.8731 21 35.6425 21H14.7786C14.548 21 14.3269 21.0922 14.1639 21.2563C14.0009 21.4204 13.9093 21.6429 13.9093 21.875C13.9093 22.1071 14.0009 22.3296 14.1639 22.4937C14.3269 22.6578 14.548 22.75 14.7786 22.75ZM23.4719 48.8687C22.8023 48.8859 22.1452 48.6838 21.5994 48.293C20.7756 47.7548 19.8144 47.4683 18.8323 47.4683C17.8501 47.4683 16.889 47.7548 16.0652 48.293C15.5194 48.6838 14.8623 48.8859 14.1927 48.8687C13.5256 48.887 12.8705 48.6875 12.3254 48.3C11.5107 47.7454 10.546 47.457 9.56262 47.474C9.33206 47.474 9.11095 47.5662 8.94792 47.7303C8.78489 47.8944 8.6933 48.1169 8.6933 48.349C8.6933 48.5811 8.78489 48.8036 8.94792 48.9677C9.11095 49.1318 9.33206 49.224 9.56262 49.224C10.2311 49.2074 10.8869 49.4094 11.4317 49.7997C12.2464 50.3543 13.211 50.6427 14.1944 50.6257C15.1786 50.643 16.1443 50.3552 16.9606 49.8015C17.5136 49.4263 18.1654 49.2259 18.8323 49.2259C19.4992 49.2259 20.1509 49.4263 20.704 49.8015C21.5203 50.3552 22.4859 50.643 23.4702 50.6257C23.7007 50.6257 23.9218 50.5336 24.0849 50.3695C24.2479 50.2054 24.3395 49.9828 24.3395 49.7507C24.3395 49.5187 24.2479 49.2961 24.0849 49.132C23.9218 48.9679 23.7007 48.8757 23.4702 48.8757L23.4719 48.8687ZM14.7786 19.25H35.6425C35.8731 19.25 36.0942 19.1578 36.2572 18.9937C36.4202 18.8296 36.5118 18.6071 36.5118 18.375C36.5118 18.1429 36.4202 17.9204 36.2572 17.7563C36.0942 17.5922 35.8731 17.5 35.6425 17.5H14.7786C14.548 17.5 14.3269 17.5922 14.1639 17.7563C14.0009 17.9204 13.9093 18.1429 13.9093 18.375C13.9093 18.6071 14.0009 18.8296 14.1639 18.9937C14.3269 19.1578 14.548 19.25 14.7786 19.25ZM14.7786 31.5H35.6425C35.8731 31.5 36.0942 31.4078 36.2572 31.2437C36.4202 31.0796 36.5118 30.8571 36.5118 30.625C36.5118 30.3929 36.4202 30.1704 36.2572 30.0063C36.0942 29.8422 35.8731 29.75 35.6425 29.75H14.7786C14.548 29.75 14.3269 29.8422 14.1639 30.0063C14.0009 30.1704 13.9093 30.3929 13.9093 30.625C13.9093 30.8571 14.0009 31.0796 14.1639 31.2437C14.3269 31.4078 14.548 31.5 14.7786 31.5ZM7.82397 31.5C8.33978 31.5 8.84401 31.346 9.27289 31.0576C9.70177 30.7692 10.036 30.3592 10.2334 29.8795C10.4308 29.3999 10.4825 28.8721 10.3818 28.3629C10.2812 27.8537 10.0328 27.386 9.66809 27.0188C9.30336 26.6517 8.83866 26.4017 8.33276 26.3004C7.82686 26.1992 7.30248 26.2511 6.82593 26.4498C6.34938 26.6485 5.94207 26.9849 5.6555 27.4166C5.36893 27.8483 5.21598 28.3558 5.21598 28.875C5.21598 29.5712 5.49075 30.2389 5.97984 30.7312C6.46893 31.2234 7.13228 31.5 7.82397 31.5ZM7.82397 28C7.9959 28 8.16398 28.0513 8.30694 28.1475C8.4499 28.2436 8.56132 28.3803 8.62712 28.5402C8.69292 28.7 8.71013 28.876 8.67659 29.0457C8.64305 29.2154 8.56025 29.3713 8.43867 29.4937C8.3171 29.6161 8.1622 29.6994 7.99356 29.7332C7.82493 29.7669 7.65014 29.7496 7.49129 29.6834C7.33244 29.6172 7.19667 29.505 7.10114 29.3611C7.00562 29.2172 6.95464 29.0481 6.95464 28.875C6.95464 28.6429 7.04623 28.4204 7.20926 28.2563C7.37229 28.0922 7.59341 28 7.82397 28ZM10.432 37.625C10.432 37.1058 10.279 36.5983 9.99243 36.1666C9.70586 35.7349 9.29855 35.3985 8.822 35.1998C8.34545 35.0011 7.82107 34.9492 7.31517 35.0504C6.80927 35.1517 6.34457 35.4017 5.97984 35.7688C5.61511 36.136 5.36672 36.6037 5.26609 37.1129C5.16546 37.6221 5.21711 38.1499 5.4145 38.6295C5.61189 39.1092 5.94616 39.5192 6.37504 39.8076C6.80393 40.096 7.30815 40.25 7.82397 40.25C8.51565 40.25 9.179 39.9734 9.66809 39.4812C10.1572 38.9889 10.432 38.3212 10.432 37.625ZM7.82397 38.5C7.65203 38.5 7.48395 38.4487 7.34099 38.3525C7.19803 38.2564 7.08661 38.1197 7.02081 37.9598C6.95501 37.8 6.9378 37.624 6.97134 37.4543C7.00488 37.2846 7.08768 37.1287 7.20926 37.0063C7.33083 36.8839 7.48573 36.8006 7.65437 36.7668C7.823 36.7331 7.99779 36.7504 8.15664 36.8166C8.31549 36.8828 8.45126 36.995 8.54679 37.1389C8.64231 37.2828 8.6933 37.4519 8.6933 37.625C8.6933 37.8571 8.60171 38.0796 8.43867 38.2437C8.27564 38.4078 8.05453 38.5 7.82397 38.5ZM14.7786 36.75H28.6879C28.9184 36.75 29.1396 36.6578 29.3026 36.4937C29.4656 36.3296 29.5572 36.1071 29.5572 35.875C29.5572 35.6429 29.4656 35.4204 29.3026 35.2563C29.1396 35.0922 28.9184 35 28.6879 35H14.7786C14.548 35 14.3269 35.0922 14.1639 35.2563C14.0009 35.4204 13.9093 35.6429 13.9093 35.875C13.9093 36.1071 14.0009 36.3296 14.1639 36.4937C14.3269 36.6578 14.548 36.75 14.7786 36.75ZM7.82397 22.75C8.33978 22.75 8.84401 22.596 9.27289 22.3076C9.70177 22.0192 10.036 21.6092 10.2334 21.1295C10.4308 20.6499 10.4825 20.1221 10.3818 19.6129C10.2812 19.1037 10.0328 18.636 9.66809 18.2688C9.30336 17.9017 8.83866 17.6517 8.33276 17.5504C7.82686 17.4492 7.30248 17.5011 6.82593 17.6998C6.34938 17.8985 5.94207 18.2349 5.6555 18.6666C5.36893 19.0983 5.21598 19.6058 5.21598 20.125C5.21598 20.8212 5.49075 21.4889 5.97984 21.9812C6.46893 22.4734 7.13228 22.75 7.82397 22.75ZM7.82397 19.25C7.9959 19.25 8.16398 19.3013 8.30694 19.3975C8.4499 19.4936 8.56132 19.6303 8.62712 19.7902C8.69292 19.95 8.71013 20.126 8.67659 20.2957C8.64305 20.4654 8.56025 20.6213 8.43867 20.7437C8.3171 20.8661 8.1622 20.9494 7.99356 20.9832C7.82493 21.0169 7.65014 20.9996 7.49129 20.9334C7.33244 20.8672 7.19667 20.755 7.10114 20.6111C7.00562 20.4672 6.95464 20.2981 6.95464 20.125C6.95464 19.8929 7.04623 19.6704 7.20926 19.5063C7.37229 19.3422 7.59341 19.25 7.82397 19.25ZM14.7786 40.25H28.6879C28.9184 40.25 29.1396 40.1578 29.3026 39.9937C29.4656 39.8296 29.5572 39.6071 29.5572 39.375C29.5572 39.1429 29.4656 38.9204 29.3026 38.7563C29.1396 38.5922 28.9184 38.5 28.6879 38.5H14.7786C14.548 38.5 14.3269 38.5922 14.1639 38.7563C14.0009 38.9204 13.9093 39.1429 13.9093 39.375C13.9093 39.6071 14.0009 39.8296 14.1639 39.9937C14.3269 40.1578 14.548 40.25 14.7786 40.25Z" fill="#35AB52"/>
</svg>
